<svg width="1920" height="1080" viewBox="0 0 1920 1080" fill="none" xmlns="http://www.w3.org/2000/svg">
<g clip-path="url(#clip0_116_1695)">
<g opacity="0.24">
<path opacity="0.0144928" d="M1203.27 1059.31C1196.81 1052.66 1194.14 1039.71 1196.77 1027.74L1272.57 681.701C1274.09 674.794 1277.21 668.991 1281.27 665.532L1577.68 412.962C1580.85 410.267 1584.41 409.145 1587.89 409.745L1872.17 458.71C1878.65 459.826 1884.02 466.731 1886.04 476.546L1946.36 769.441C1948.38 779.256 1946.71 790.297 1942.04 797.962L1737.09 1134.19C1734.58 1138.31 1731.37 1141.16 1727.9 1142.36L1402.63 1254.83C1398.17 1256.37 1393.6 1255.09 1389.87 1251.26L1203.27 1059.31Z" stroke="url(#paint0_linear_116_1695)" stroke-width="4"/>
<path opacity="0.0289855" d="M1220.51 1107.88C1213.83 1101.78 1210.73 1089.11 1212.94 1076.97L1276.52 728.615C1277.8 721.604 1280.73 715.562 1284.67 711.783L1570.44 438.16C1573.51 435.213 1577.04 433.804 1580.55 434.122L1864.4 459.82C1870.92 460.411 1876.52 466.854 1878.88 476.466L1948.61 761.336C1950.96 770.949 1949.66 782.083 1945.25 790.101L1753.14 1139.14C1750.76 1143.46 1747.65 1146.56 1744.21 1148.04L1425.08 1285.36C1420.67 1287.25 1416.04 1286.34 1412.19 1282.82L1220.51 1107.88Z" stroke="url(#paint1_linear_116_1695)" stroke-width="4"/>
<path opacity="0.0434783" d="M1238.6 1155.2C1231.72 1149.66 1228.2 1137.3 1230 1125.04L1281.33 775.444C1282.37 768.35 1285.09 762.085 1288.92 757.994L1563.38 464.504C1566.36 461.312 1569.85 459.62 1573.38 459.654L1856.03 462.425C1862.57 462.49 1868.39 468.453 1871.07 477.834L1949.91 753.99C1952.59 763.372 1951.66 774.564 1947.52 782.91L1768.61 1143.5C1766.37 1148 1763.36 1151.35 1759.96 1153.11L1447.77 1314.42C1443.41 1316.66 1438.75 1316.13 1434.77 1312.93L1238.6 1155.2Z" stroke="url(#paint2_linear_116_1695)" stroke-width="4"/>
<path opacity="0.057971" d="M1257.5 1201.2C1250.44 1196.24 1246.49 1184.24 1247.87 1171.89L1286.98 822.108C1287.78 814.948 1290.3 808.479 1293.99 804.087L1556.54 491.956C1559.43 488.527 1562.87 486.556 1566.41 486.307L1847.11 466.551C1853.65 466.09 1859.68 471.557 1862.67 480.678L1950.28 747.464C1953.28 756.586 1952.73 767.802 1948.87 776.452L1783.48 1147.31C1781.39 1151.98 1778.48 1155.58 1775.13 1157.6L1470.63 1342C1466.35 1344.59 1461.66 1344.43 1457.56 1341.56L1257.5 1201.2Z" stroke="url(#paint3_linear_116_1695)" stroke-width="4"/>
<path opacity="0.0724638" d="M1277.14 1245.86C1269.92 1241.5 1265.58 1229.88 1266.54 1217.49L1293.48 868.564C1294.03 861.36 1296.33 854.702 1299.89 850.021L1549.98 520.517C1552.75 516.858 1556.14 514.61 1559.69 514.078L1837.7 472.255C1844.23 471.272 1850.44 476.225 1853.74 485.059L1949.77 741.853C1953.08 750.687 1952.91 761.895 1949.35 770.823L1797.73 1150.65C1795.8 1155.49 1793 1159.31 1789.72 1161.6L1493.64 1368.13C1489.43 1371.06 1484.72 1371.28 1480.52 1368.75L1277.14 1245.86Z" stroke="url(#paint4_linear_116_1695)" stroke-width="4"/>
<path opacity="0.0869565" d="M1297.49 1289.09C1290.13 1285.33 1285.4 1274.14 1285.93 1261.75L1300.8 914.709C1301.11 907.481 1303.19 900.651 1306.59 895.692L1543.71 550.115C1546.38 546.234 1549.7 543.714 1553.24 542.898L1827.86 479.522C1834.36 478.021 1840.74 482.448 1844.34 490.969L1948.42 737.187C1952.02 745.707 1952.23 756.87 1948.97 766.049L1811.36 1153.54C1809.59 1158.53 1806.91 1162.58 1803.69 1165.13L1516.72 1392.77C1512.6 1396.04 1507.88 1396.64 1503.59 1394.45L1297.49 1289.09Z" stroke="url(#paint5_linear_116_1695)" stroke-width="4"/>
<path opacity="0.101449" d="M1318.48 1330.89C1311 1327.73 1305.9 1317.01 1306 1304.65L1308.94 960.506C1309 953.274 1310.85 946.29 1314.1 941.064L1537.79 580.743C1540.33 576.648 1543.58 573.861 1547.11 572.762L1817.64 488.402C1824.1 486.388 1830.62 490.276 1834.51 498.457L1946.25 733.549C1950.14 741.731 1950.73 752.816 1947.78 762.219L1824.35 1156.07C1822.74 1161.2 1820.19 1165.46 1817.04 1168.28L1539.82 1415.97C1535.8 1419.57 1531.09 1420.55 1526.72 1418.7L1318.48 1330.89Z" stroke="url(#paint6_linear_116_1695)" stroke-width="4"/>
<path opacity="0.115942" d="M1340.05 1371.19C1332.48 1368.65 1327.03 1358.42 1326.71 1346.14L1317.87 1005.88C1317.68 998.662 1319.3 991.543 1322.38 986.062L1532.23 612.349C1534.65 608.049 1537.82 605 1541.33 603.62L1807.11 498.894C1813.51 496.374 1820.16 499.712 1824.32 507.53L1943.32 730.986C1947.48 738.805 1948.45 749.777 1945.82 759.375L1836.69 1158.27C1835.26 1163.53 1832.83 1168 1829.76 1171.07L1562.9 1437.73C1558.99 1441.64 1554.3 1443 1549.85 1441.5L1340.05 1371.19Z" stroke="url(#paint7_linear_116_1695)" stroke-width="4"/>
<path opacity="0.130435" d="M1362.16 1409.98C1354.51 1408.06 1348.74 1398.35 1347.99 1386.19L1327.58 1050.77C1327.14 1043.59 1328.52 1036.35 1331.42 1030.63L1527.08 644.897C1529.36 640.401 1532.45 637.095 1535.93 635.434L1796.33 511.01C1802.64 507.993 1809.4 510.772 1813.83 518.204L1939.66 729.553C1944.09 736.985 1945.42 747.812 1943.13 757.576L1848.38 1160.22C1847.11 1165.6 1844.83 1170.26 1841.85 1173.58L1585.91 1458.06C1582.11 1462.28 1577.45 1464.01 1572.94 1462.88L1362.16 1409.98Z" stroke="url(#paint8_linear_116_1695)" stroke-width="4"/>
<path opacity="0.144928" d="M1384.74 1447.23C1377.04 1445.93 1370.95 1436.78 1369.79 1424.77L1338.03 1095.13C1337.35 1088.01 1338.49 1080.67 1341.21 1074.72L1522.36 678.352C1524.5 673.668 1527.5 670.11 1530.94 668.171L1785.34 524.761C1791.55 521.256 1798.41 523.469 1803.08 530.492L1935.32 729.303C1939.99 736.326 1941.69 746.976 1939.73 756.877L1859.39 1161.98C1858.31 1167.45 1856.17 1172.31 1853.28 1175.87L1608.78 1477C1605.11 1481.52 1600.49 1483.62 1595.93 1482.85L1384.74 1447.23Z" stroke="url(#paint9_linear_116_1695)" stroke-width="4"/>
<path opacity="0.15942" d="M1407.73 1482.91C1400.01 1482.23 1393.64 1473.66 1392.07 1461.84L1349.22 1138.88C1348.29 1131.84 1349.18 1124.42 1351.71 1118.26L1518.11 712.646C1520.1 707.784 1523 703.979 1526.4 701.764L1774.21 540.125C1780.32 536.143 1787.24 537.784 1792.14 544.379L1930.34 730.259C1935.25 736.854 1937.31 747.294 1935.68 757.303L1869.75 1163.57C1868.84 1169.14 1866.86 1174.18 1864.07 1177.97L1631.48 1494.55C1627.95 1499.36 1623.38 1501.83 1618.77 1501.43L1407.73 1482.91Z" stroke="url(#paint10_linear_116_1695)" stroke-width="4"/>
<path opacity="0.173913" d="M1431.09 1517.02C1423.37 1516.96 1416.73 1508.98 1414.76 1497.4L1361.12 1181.99C1359.94 1175.04 1360.59 1167.57 1362.92 1161.2L1514.35 747.746C1516.19 742.716 1518.98 738.671 1522.33 736.183L1763.01 557.106C1768.99 552.659 1775.96 553.728 1781.08 559.876L1924.78 732.473C1929.9 738.621 1932.31 748.82 1931.03 758.906L1879.43 1165.09C1878.72 1170.73 1876.89 1175.93 1874.21 1179.96L1653.96 1510.76C1650.57 1515.85 1646.06 1518.69 1641.43 1518.65L1431.09 1517.02Z" stroke="url(#paint11_linear_116_1695)" stroke-width="4"/>
<path opacity="0.188406" d="M1454.75 1549.52C1447.05 1550.07 1440.17 1542.72 1437.8 1531.4L1373.7 1224.38C1372.28 1217.55 1372.67 1210.03 1374.79 1203.49L1511.11 783.586C1512.8 778.398 1515.47 774.12 1518.76 771.361L1751.79 575.677C1757.63 570.779 1764.63 571.273 1769.94 576.958L1918.69 735.961C1924.01 741.646 1926.76 751.575 1925.82 761.708L1888.46 1166.55C1887.93 1172.26 1886.27 1177.62 1883.7 1181.87L1676.17 1525.64C1672.93 1531 1668.5 1534.2 1663.85 1534.53L1454.75 1549.52Z" stroke="url(#paint12_linear_116_1695)" stroke-width="4"/>
<path opacity="0.202899" d="M1478.65 1580.44C1470.99 1581.6 1463.9 1574.89 1461.15 1563.87L1386.93 1266.03C1385.26 1259.34 1385.4 1251.8 1387.31 1245.09L1508.42 820.138C1509.94 814.802 1512.49 810.298 1515.71 807.271L1740.6 595.843C1746.28 590.509 1753.29 590.429 1758.79 595.636L1912.1 740.775C1917.6 745.982 1920.68 755.611 1920.09 765.761L1896.81 1168.05C1896.47 1173.81 1894.98 1179.32 1892.54 1183.78L1698.05 1539.27C1694.98 1544.88 1690.63 1548.44 1685.98 1549.14L1478.65 1580.44Z" stroke="url(#paint13_linear_116_1695)" stroke-width="4"/>
<path opacity="0.217391" d="M1502.75 1609.77C1495.14 1611.52 1487.86 1605.46 1484.75 1594.79L1400.78 1306.89C1398.87 1300.36 1398.76 1292.82 1400.45 1285.95L1506.29 857.332C1507.65 851.86 1510.07 847.137 1513.21 843.848L1729.51 617.568C1735.01 611.813 1742.01 611.161 1747.67 615.877L1905.07 746.924C1910.73 751.64 1914.13 760.945 1913.89 771.081L1904.5 1169.63C1904.36 1175.42 1903.04 1181.07 1900.73 1185.74L1719.59 1551.66C1716.68 1557.52 1712.43 1561.42 1707.78 1562.5L1502.75 1609.77Z" stroke="url(#paint14_linear_116_1695)" stroke-width="4"/>
<path opacity="0.231884" d="M1526.97 1637.51C1519.45 1639.85 1512 1634.45 1508.53 1624.14L1415.22 1346.91C1413.08 1340.56 1412.7 1333.04 1414.18 1326.03L1504.75 895.121C1505.93 889.525 1508.22 884.591 1511.28 881.043L1718.56 640.829C1723.88 634.67 1730.84 633.453 1736.65 637.667L1897.64 754.435C1903.45 758.649 1907.16 767.602 1907.27 777.694L1911.53 1171.34C1911.6 1177.16 1910.46 1182.92 1908.28 1187.79L1740.71 1562.87C1737.99 1568.96 1733.84 1573.21 1729.21 1574.65L1526.97 1637.51Z" stroke="url(#paint15_linear_116_1695)" stroke-width="4"/>
<path opacity="0.246377" d="M1551.26 1663.67C1543.84 1666.58 1536.26 1661.85 1532.45 1651.94L1430.21 1386.05C1427.85 1379.89 1427.21 1372.41 1428.46 1365.29L1503.82 933.432C1504.82 927.724 1506.96 922.588 1509.93 918.787L1707.81 665.579C1712.93 659.035 1719.84 657.26 1725.77 660.962L1889.88 763.305C1895.81 767.008 1899.81 775.585 1900.27 785.603L1917.92 1173.23C1918.18 1179.05 1917.23 1184.92 1915.19 1189.99L1761.39 1572.93C1758.86 1579.24 1754.83 1583.82 1750.22 1585.63L1551.26 1663.67Z" stroke="url(#paint16_linear_116_1695)" stroke-width="4"/>
<path opacity="0.26087" d="M1575.57 1688.28C1568.28 1691.74 1560.58 1687.69 1556.45 1678.21L1445.73 1424.3C1443.14 1418.35 1442.25 1410.93 1443.26 1403.71L1503.51 972.232C1504.32 966.424 1506.31 961.096 1509.18 957.047L1697.32 691.807C1702.22 684.897 1709.05 682.57 1715.1 685.755L1881.82 773.569C1887.86 776.754 1892.14 784.933 1892.94 794.847L1923.66 1175.36C1924.13 1181.17 1923.36 1187.15 1921.48 1192.39L1781.59 1581.92C1779.25 1588.44 1775.36 1593.34 1770.79 1595.51L1575.57 1688.28Z" stroke="url(#paint17_linear_116_1695)" stroke-width="4"/>
<path opacity="0.275362" d="M1599.84 1711.34C1592.69 1715.34 1584.91 1711.97 1580.47 1702.94L1461.74 1461.59C1458.94 1455.89 1457.79 1448.55 1458.56 1441.24L1503.83 1011.45C1504.45 1005.55 1506.29 1000.04 1509.05 995.751L1687.13 719.456C1691.8 712.198 1698.55 709.332 1704.68 711.993L1873.52 785.218C1879.66 787.879 1884.19 795.639 1885.34 805.42L1928.78 1177.79C1929.45 1183.57 1928.88 1189.63 1927.16 1195.04L1801.28 1589.88C1799.14 1596.59 1795.38 1601.81 1790.87 1604.34L1599.84 1711.34Z" stroke="url(#paint18_linear_116_1695)" stroke-width="4"/>
<path opacity="0.289855" d="M1624.02 1732.88C1617.03 1737.41 1609.19 1734.71 1604.46 1726.16L1478.2 1497.92C1475.19 1492.47 1473.78 1485.23 1474.31 1477.86L1504.81 1051.02C1505.23 1045.05 1506.9 1039.37 1509.55 1034.84L1677.28 748.48C1681.73 740.897 1688.36 737.503 1694.57 739.637L1865.03 798.251C1871.23 800.386 1876.02 807.706 1877.5 817.325L1933.27 1180.54C1934.15 1186.28 1933.79 1192.41 1932.22 1197.99L1820.41 1596.86C1818.48 1603.75 1814.87 1609.27 1810.42 1612.15L1624.02 1732.88Z" stroke="url(#paint19_linear_116_1695)" stroke-width="4"/>
<path opacity="0.304348" d="M1648.05 1752.94C1641.25 1757.96 1633.37 1755.94 1628.37 1747.88L1495.08 1533.25C1491.86 1528.07 1490.2 1520.95 1490.48 1513.53L1506.44 1090.88C1506.67 1084.86 1508.16 1079.02 1510.69 1074.26L1667.84 778.831C1672.04 770.943 1678.54 767.035 1684.8 768.641L1856.39 812.665C1862.65 814.271 1867.67 821.135 1869.48 830.563L1937.17 1183.68C1938.26 1189.36 1938.1 1195.55 1936.7 1201.27L1838.95 1602.94C1837.24 1609.99 1833.79 1615.79 1829.41 1619.03L1648.05 1752.94Z" stroke="url(#paint20_linear_116_1695)" stroke-width="4"/>
<path opacity="0.318841" d="M1671.9 1771.53C1665.28 1777.04 1657.39 1775.69 1652.14 1768.15L1512.34 1567.56C1508.93 1562.67 1507.02 1555.69 1507.05 1548.25L1508.74 1130.98C1508.77 1124.92 1510.08 1118.93 1512.48 1113.96L1658.85 810.459C1662.79 802.289 1669.15 797.883 1675.44 798.961L1847.67 828.456C1853.96 829.534 1859.19 835.925 1861.32 845.134L1940.48 1187.25C1941.78 1192.86 1941.82 1199.08 1940.61 1204.94L1856.88 1608.16C1855.39 1615.35 1852.12 1621.44 1847.82 1625.02L1671.9 1771.53Z" stroke="url(#paint21_linear_116_1695)" stroke-width="4"/>
<path opacity="0.333333" d="M1695.49 1788.71C1689.09 1794.68 1681.21 1793.99 1675.72 1786.98L1529.95 1600.84C1526.35 1596.25 1524.19 1589.44 1523.97 1581.99L1511.72 1171.26C1511.53 1165.17 1512.66 1159.04 1514.92 1153.86L1650.34 843.305C1654.02 834.877 1660.21 829.989 1666.52 830.54L1838.89 845.608C1845.2 846.16 1850.63 852.063 1853.08 861.027L1943.23 1191.3C1944.73 1196.81 1944.99 1203.06 1943.95 1209.04L1874.17 1612.6C1872.91 1619.92 1869.82 1626.27 1865.62 1630.18L1695.49 1788.71Z" stroke="url(#paint22_linear_116_1695)" stroke-width="4"/>
<path opacity="0.347826" d="M1718.79 1804.51C1712.61 1810.92 1704.77 1810.88 1699.07 1804.42L1547.86 1633.07C1544.08 1628.8 1541.68 1622.17 1541.2 1614.74L1515.36 1211.65C1514.97 1205.55 1515.91 1199.31 1518.02 1193.93L1642.36 877.317C1645.76 868.652 1651.78 863.302 1658.09 863.331L1830.12 864.112C1836.43 864.141 1842.04 869.544 1844.8 878.236L1945.42 1195.87C1947.13 1201.27 1947.6 1207.52 1946.75 1213.61L1890.79 1616.33C1889.76 1623.75 1886.86 1630.35 1882.77 1634.59L1718.79 1804.51Z" stroke="url(#paint23_linear_116_1695)" stroke-width="4"/>
<path opacity="0.362319" d="M1741.76 1818.98C1735.82 1825.8 1728.03 1826.41 1722.14 1820.51L1566.03 1664.24C1562.1 1660.3 1559.45 1653.88 1558.72 1646.49L1519.69 1252.1C1519.09 1246.01 1519.83 1239.66 1521.79 1234.09L1634.95 912.428C1638.07 903.552 1643.89 897.758 1650.18 897.269L1821.4 883.945C1827.69 883.456 1833.47 888.346 1836.52 896.742L1947.09 1201C1949 1206.26 1949.69 1212.5 1949.04 1218.69L1906.72 1619.41C1905.93 1626.92 1903.23 1633.75 1899.26 1638.31L1741.76 1818.98Z" stroke="url(#paint24_linear_116_1695)" stroke-width="4"/>
<path opacity="0.376812" d="M1764.34 1832.17C1758.64 1839.38 1750.94 1840.61 1744.88 1835.29L1584.44 1694.34C1580.35 1690.75 1577.47 1684.56 1576.48 1677.23L1524.7 1292.55C1523.88 1286.48 1524.41 1280.04 1526.21 1274.3L1628.13 948.574C1630.97 939.51 1636.58 933.292 1642.83 932.291L1812.77 905.081C1819.02 904.08 1824.94 908.451 1828.28 916.526L1948.24 1206.72C1950.36 1211.84 1951.27 1218.05 1950.81 1224.32L1921.94 1621.92C1921.39 1629.49 1918.9 1636.54 1915.06 1641.4L1764.34 1832.17Z" stroke="url(#paint25_linear_116_1695)" stroke-width="4"/>
<path opacity="0.391304" d="M1786.49 1844.13C1781.05 1851.7 1773.45 1853.55 1767.24 1848.8L1603.03 1723.38C1598.8 1720.14 1595.69 1714.2 1594.45 1706.95L1530.37 1332.94C1529.34 1326.91 1529.67 1320.4 1531.3 1314.49L1621.96 985.691C1624.5 976.464 1629.89 969.843 1636.09 968.338L1804.28 927.499C1810.47 925.994 1816.53 929.836 1820.14 937.568L1948.92 1213.08C1951.23 1218.03 1952.36 1224.2 1952.11 1230.53L1936.43 1623.91C1936.13 1631.54 1933.86 1638.79 1930.15 1643.94L1786.49 1844.13Z" stroke="url(#paint26_linear_116_1695)" stroke-width="4"/>
<path opacity="0.405797" d="M1808.18 1854.9C1803.01 1862.81 1795.52 1865.26 1789.18 1861.1L1621.78 1751.33C1617.42 1748.47 1614.1 1742.79 1612.6 1735.65L1536.72 1373.19C1535.47 1367.23 1535.59 1360.66 1537.04 1354.6L1616.45 1023.7C1618.69 1014.33 1623.85 1007.33 1629.98 1005.33L1795.97 951.157C1802.1 949.157 1808.26 952.463 1812.14 959.829L1949.13 1220.1C1951.64 1224.87 1952.99 1230.96 1952.95 1237.34L1950.19 1625.47C1950.13 1633.12 1948.09 1640.55 1944.53 1645.99L1808.18 1854.9Z" stroke="url(#paint27_linear_116_1695)" stroke-width="4"/>
<path opacity="0.42029" d="M1829.36 1864.55C1824.47 1872.78 1817.12 1875.8 1810.67 1872.24L1640.65 1778.21C1636.17 1775.73 1632.63 1770.34 1630.88 1763.33L1543.73 1413.26C1542.27 1407.39 1542.16 1400.78 1543.43 1394.58L1611.63 1062.53C1613.58 1053.05 1618.49 1045.69 1624.53 1043.21L1787.89 976.025C1793.93 973.541 1800.18 976.306 1804.31 983.286L1948.91 1227.81C1951.61 1232.38 1953.18 1238.39 1953.35 1244.8L1963.19 1626.66C1963.38 1634.31 1961.57 1641.9 1958.18 1647.62L1829.36 1864.55Z" stroke="url(#paint28_linear_116_1695)" stroke-width="4"/>
<path opacity="0.434783" d="M1850 1873.15C1845.4 1881.67 1838.2 1885.26 1831.66 1882.28L1659.59 1804.04C1655 1801.95 1651.26 1796.86 1649.27 1790L1551.39 1453.11C1549.71 1447.34 1549.38 1440.71 1550.47 1434.38L1607.53 1102.13C1609.17 1092.56 1613.83 1084.87 1619.77 1081.91L1780.06 1002.08C1786 999.121 1792.33 1001.34 1796.69 1007.92L1948.28 1236.26C1951.16 1240.61 1952.95 1246.51 1953.33 1252.93L1975.42 1627.56C1975.87 1635.2 1974.29 1642.94 1971.07 1648.91L1850 1873.15Z" stroke="url(#paint29_linear_116_1695)" stroke-width="4"/>
<path opacity="0.449275" d="M1870.07 1880.74C1865.76 1889.53 1858.73 1893.66 1852.13 1891.28L1678.57 1828.8C1673.9 1827.11 1669.96 1822.35 1667.73 1815.65L1559.69 1492.66C1557.8 1487 1557.25 1480.37 1558.14 1473.94L1604.18 1142.39C1605.51 1132.76 1609.91 1124.75 1615.73 1121.33L1772.54 1029.26C1778.37 1025.84 1784.75 1027.51 1789.34 1033.67L1947.27 1245.45C1950.33 1249.56 1952.34 1255.34 1952.94 1261.75L1986.89 1628.24C1987.6 1635.84 1986.27 1643.7 1983.22 1649.91L1870.07 1880.74Z" stroke="url(#paint30_linear_116_1695)" stroke-width="4"/>
<path opacity="0.463768" d="M1889.53 1887.41C1885.53 1896.43 1878.68 1901.09 1872.03 1899.3L1697.56 1852.52C1692.81 1851.24 1688.69 1846.81 1686.21 1840.31L1568.62 1531.87C1566.52 1526.35 1565.74 1519.74 1566.44 1513.22L1601.58 1183.26C1602.61 1173.59 1606.73 1165.3 1612.42 1161.43L1765.36 1057.53C1771.06 1053.66 1777.48 1054.8 1782.28 1060.51L1945.91 1255.43C1949.14 1259.28 1951.36 1264.91 1952.17 1271.29L1997.59 1628.78C1998.55 1636.31 1997.47 1644.27 1994.6 1650.72L1889.53 1887.41Z" stroke="url(#paint31_linear_116_1695)" stroke-width="4"/>
<path opacity="0.478261" d="M1908.36 1893.21C1904.66 1902.45 1898.01 1907.6 1891.33 1906.41L1716.52 1875.2C1711.7 1874.35 1707.41 1870.27 1704.7 1863.98L1578.16 1570.68C1575.85 1565.32 1574.85 1558.75 1575.34 1552.16L1599.76 1224.66C1600.48 1214.98 1604.32 1206.42 1609.87 1202.12L1758.56 1086.85C1764.1 1082.55 1770.55 1083.13 1775.54 1088.39L1944.21 1266.19C1947.61 1269.77 1950.04 1275.23 1951.07 1281.58L2007.51 1629.23C2008.72 1636.68 2007.89 1644.73 2005.23 1651.38L1908.36 1893.21Z" stroke="url(#paint32_linear_116_1695)" stroke-width="4"/>
<path opacity="0.492754" d="M1926.53 1898.21C1923.14 1907.64 1916.7 1913.27 1910.01 1912.67L1735.41 1896.88C1730.55 1896.44 1726.1 1892.74 1723.16 1886.68L1588.29 1609.04C1585.78 1603.87 1584.56 1597.36 1584.84 1590.7L1598.74 1266.5C1599.15 1256.83 1602.7 1248.03 1608.09 1243.31L1752.16 1117.17C1757.55 1112.45 1764 1112.49 1769.16 1117.27L1942.23 1277.77C1945.78 1281.06 1948.42 1286.33 1949.67 1292.61L2016.67 1629.68C2018.13 1637.03 2017.56 1645.13 2015.09 1651.98L1926.53 1898.21Z" stroke="url(#paint33_linear_116_1695)" stroke-width="4"/>
<path opacity="0.507246" d="M1944.02 1902.48C1940.94 1912.08 1934.72 1918.18 1928.05 1918.15L1754.2 1917.56C1749.31 1917.55 1744.71 1914.23 1741.55 1908.43L1599.01 1646.91C1596.3 1641.94 1594.84 1635.51 1594.92 1628.82L1598.51 1308.72C1598.62 1299.08 1601.87 1290.07 1607.1 1284.95L1746.2 1148.43C1751.42 1143.31 1757.85 1142.81 1763.18 1147.11L1939.97 1290.18C1943.67 1293.17 1946.51 1298.23 1947.98 1304.42L2025.06 1630.19C2026.76 1637.41 2026.45 1645.55 2024.19 1652.59L1944.02 1902.48Z" stroke="url(#paint34_linear_116_1695)" stroke-width="4"/>
<path opacity="0.521739" d="M1960.8 1906.1C1958.04 1915.84 1952.06 1922.38 1945.41 1922.93L1772.86 1937.28C1767.95 1937.69 1763.22 1934.77 1759.84 1929.25L1610.28 1684.25C1607.38 1679.49 1605.7 1673.16 1605.56 1666.45L1599.1 1351.23C1598.9 1341.65 1601.86 1332.45 1606.9 1326.94L1740.7 1180.59C1745.74 1175.08 1752.15 1174.04 1757.61 1177.86L1937.48 1303.42C1941.31 1306.1 1944.35 1310.93 1946.03 1317.02L2032.68 1630.84C2034.63 1637.91 2034.58 1646.06 2032.54 1653.26L1960.8 1906.1Z" stroke="url(#paint35_linear_116_1695)" stroke-width="4"/>
</g>
<g opacity="0.24">
<path opacity="0.0144928" d="M612.852 212.278C618.166 219.866 618.731 233.076 614.229 244.478L484.135 573.97C481.538 580.546 477.532 585.777 472.972 588.543L140.026 790.537C136.473 792.693 132.778 793.232 129.436 792.083L-143.374 698.351C-149.594 696.214 -153.792 688.541 -154.22 678.529L-166.994 379.76C-167.422 369.748 -164.006 359.116 -158.17 352.296L97.8403 53.1087C100.977 49.443 104.597 47.1413 108.215 46.5106L447.271 -12.577C451.914 -13.386 456.23 -11.3887 459.295 -7.01173L612.852 212.278Z" stroke="url(#paint36_linear_116_1695)" stroke-width="4"/>
<path opacity="0.0289855" d="M603.587 161.578C609.206 168.661 610.245 181.669 606.12 193.296L487.731 527.028C485.349 533.744 481.495 539.241 476.995 542.342L151.204 766.82C147.695 769.238 143.985 770.065 140.571 769.191L-135.528 698.496C-141.87 696.872 -146.373 689.617 -147.161 679.752L-170.51 387.402C-171.298 377.537 -168.236 366.753 -162.599 359.543L82.7858 45.6578C85.8199 41.7767 89.3907 39.2094 93.02 38.2983L429.983 -46.293C434.637 -47.4614 439.061 -45.8246 442.307 -41.733L603.587 161.578Z" stroke="url(#paint37_linear_116_1695)" stroke-width="4"/>
<path opacity="0.0434783" d="M593.281 111.975C599.189 118.534 600.699 131.299 596.964 143.114L490.467 480.031C488.305 486.869 484.615 492.618 480.185 496.045L162.38 741.941C158.923 744.615 155.207 745.729 151.73 745.131L-126.847 697.26C-133.295 696.152 -138.089 689.336 -139.235 679.647L-172.962 394.446C-174.108 384.757 -171.409 373.856 -165.988 366.278L68.211 38.8856C71.1344 34.799 74.6479 31.971 78.2796 30.7815L412.229 -78.6023C416.883 -80.1268 421.404 -78.8551 424.823 -75.0595L593.281 111.975Z" stroke="url(#paint38_linear_116_1695)" stroke-width="4"/>
<path opacity="0.057971" d="M581.976 63.5473C588.155 69.5649 590.13 82.0457 586.796 94.0114L492.337 433.065C490.403 440.004 486.885 445.989 482.537 449.734L173.51 715.933C170.115 718.858 166.401 720.254 162.868 719.934L-117.381 694.613C-123.918 694.022 -128.99 687.664 -130.491 678.182L-174.373 400.829C-175.874 391.346 -173.545 380.361 -168.356 372.438L54.1416 32.7536C56.9466 28.4712 60.3939 25.3895 64.0197 23.9239L394.058 -109.48C398.702 -111.357 403.31 -110.453 406.893 -106.963L581.976 63.5473Z" stroke="url(#paint39_linear_116_1695)" stroke-width="4"/>
<path opacity="0.0724638" d="M569.713 16.3219C576.145 21.7824 578.578 33.9428 575.655 46.0203L493.343 386.166C491.643 393.189 488.307 399.395 484.052 403.449L184.553 688.788C181.227 691.956 177.523 693.634 173.942 693.594L-107.182 690.485C-113.789 690.412 -119.126 684.531 -120.977 675.283L-174.767 406.449C-176.618 397.201 -174.666 386.163 -169.722 377.919L40.6007 27.1794C43.28 22.7115 46.6535 19.3826 50.2651 17.6437L375.525 -138.948C380.146 -141.173 384.83 -140.641 388.57 -137.466L569.713 16.3219Z" stroke="url(#paint40_linear_116_1695)" stroke-width="4"/>
<path opacity="0.0869565" d="M556.533 -29.6057C563.198 -24.7162 566.08 -12.9168 563.577 -0.76721L493.48 339.444C492.019 346.53 488.875 352.94 484.723 357.293L195.462 660.57C192.214 663.976 188.529 665.932 184.907 666.173L-96.3067 684.882C-102.968 685.325 -108.554 679.937 -110.749 670.95L-174.174 411.272C-176.369 402.286 -174.799 391.232 -170.115 382.691L27.6071 22.1476C30.1535 17.5044 33.4452 13.9368 37.0348 11.9278L356.676 -166.965C361.264 -169.532 366.013 -169.373 369.9 -166.521L556.533 -29.6057Z" stroke="url(#paint41_linear_116_1695)" stroke-width="4"/>
<path opacity="0.101449" d="M542.49 -74.2141C549.368 -69.9072 552.688 -58.5042 550.611 -46.3221L492.762 292.936C491.546 300.065 488.602 306.663 484.564 311.304L206.206 631.281C203.043 634.917 199.384 637.149 195.73 637.671L-84.803 677.747C-91.5003 678.704 -97.3187 673.825 -99.851 665.128L-172.615 415.209C-175.148 406.512 -173.963 395.474 -169.553 386.662L15.1892 17.5796C17.5956 12.7719 20.7969 8.97029 24.3561 6.69471L337.573 -193.557C342.116 -196.461 346.919 -196.676 350.944 -194.156L542.49 -74.2141Z" stroke="url(#paint42_linear_116_1695)" stroke-width="4"/>
<path opacity="0.115942" d="M527.626 -117.446C534.696 -113.731 538.441 -102.761 536.795 -90.586L491.189 246.719C490.222 253.873 487.485 260.642 483.572 265.561L216.736 600.968C213.666 604.827 210.043 607.329 206.364 608.132L-72.7336 669.072C-79.4489 670.539 -85.4823 666.18 -88.3437 657.798L-170.13 418.207C-172.991 409.825 -172.196 398.838 -168.071 389.783L3.35801 13.4287C5.61778 8.46783 8.72121 4.44225 12.2421 1.90391L318.261 -218.717C322.749 -221.952 327.595 -222.543 331.749 -220.361L527.626 -117.446Z" stroke="url(#paint43_linear_116_1695)" stroke-width="4"/>
<path opacity="0.130435" d="M511.997 -159.267C519.237 -156.153 523.392 -145.647 522.181 -133.52L488.775 200.852C488.06 208.009 485.539 214.932 481.76 220.117L227.019 569.659C224.049 573.734 220.469 576.504 216.773 577.588L-60.1513 658.833C-66.8669 660.803 -73.0987 656.98 -76.2798 648.937L-166.749 420.206C-169.93 412.163 -169.523 401.261 -165.695 391.989L-7.86561 9.63899C-5.75906 4.53587 -2.76156 0.293021 0.713124 -2.50409L298.798 -242.462C303.22 -246.021 308.097 -246.987 312.37 -245.149L511.997 -159.267Z" stroke="url(#paint44_linear_116_1695)" stroke-width="4"/>
<path opacity="0.144928" d="M495.653 -199.642C503.041 -197.132 507.59 -187.123 506.815 -175.082L485.53 155.398C485.07 162.539 482.773 169.598 479.138 175.037L237.014 537.395C234.153 541.677 230.625 544.711 226.92 546.076L-47.1152 647.02C-53.8131 649.487 -60.2236 646.208 -63.7135 638.53L-162.508 421.153C-165.998 413.474 -165.98 402.689 -162.46 393.228L-18.4669 6.15533C-16.52 0.921881 -13.6365 -3.53016 -10.2161 -6.58155L279.237 -264.802C283.582 -268.678 288.479 -270.018 292.861 -268.529L495.653 -199.642Z" stroke="url(#paint45_linear_116_1695)" stroke-width="4"/>
<path opacity="0.15942" d="M478.647 -238.537C486.16 -236.635 491.085 -227.151 490.746 -215.236L481.468 110.42C481.266 117.525 479.198 124.702 475.718 130.383L246.687 504.22C243.942 508.701 240.473 511.994 236.767 513.639L-33.6829 633.63C-40.3458 636.586 -46.9164 633.86 -50.7035 626.567L-157.447 421.004C-161.235 413.71 -161.602 403.075 -158.4 393.454L-28.4344 2.92449C-26.6533 -2.42753 -23.8902 -7.07959 -20.5319 -10.3804L259.629 -285.752C263.886 -289.937 268.791 -291.65 273.272 -290.516L478.647 -238.537Z" stroke="url(#paint46_linear_116_1695)" stroke-width="4"/>
<path opacity="0.173913" d="M461.035 -275.933C468.651 -274.641 473.932 -265.709 474.027 -253.959L476.606 65.9685C476.663 73.0157 474.832 80.2926 471.516 86.2018L256.002 470.17C253.38 474.842 249.979 478.389 246.28 480.311L-19.9134 618.655C-26.5236 622.091 -33.2346 619.923 -37.3061 613.036L-151.605 419.706C-155.677 412.82 -156.427 402.367 -153.552 392.614L-37.7546 -0.115149C-36.1453 -5.57301 -33.5109 -10.4156 -30.223 -13.9606L240.03 -305.342C244.189 -309.827 249.09 -311.91 253.658 -311.134L461.035 -275.933Z" stroke="url(#paint47_linear_116_1695)" stroke-width="4"/>
<path opacity="0.188406" d="M442.867 -311.8C450.563 -311.114 456.179 -302.756 456.705 -291.208L470.957 22.1133C471.274 29.0829 469.686 36.44 466.542 42.5638L264.919 435.307C262.427 440.159 259.103 443.956 255.419 446.155L-5.87206 602.114C-12.4123 606.018 -19.2431 604.413 -23.5852 597.951L-145.03 417.237C-149.372 410.776 -150.502 400.535 -147.961 390.68L-46.4262 -3.00289C-44.9945 -8.5541 -42.4959 -13.579 -39.2862 -17.3627L220.482 -323.583C224.533 -328.358 229.419 -330.808 234.063 -330.395L442.867 -311.8Z" stroke="url(#paint48_linear_116_1695)" stroke-width="4"/>
<path opacity="0.202899" d="M424.21 -346.142C431.962 -346.06 437.892 -338.298 438.843 -326.989L464.552 -21.1185C465.13 -14.2465 463.789 -6.82741 460.827 -0.502857L273.417 399.655C271.064 404.679 267.824 408.718 264.163 411.192L8.39383 583.994C1.94051 588.354 -4.98957 587.313 -9.5875 581.295L-137.753 413.537C-142.351 407.519 -143.854 397.521 -141.654 387.595L-54.4301 -5.8183C-53.1816 -11.4495 -50.8261 -16.6463 -47.7027 -20.6625L201.051 -340.528C204.982 -345.583 209.841 -348.398 214.551 -348.348L424.21 -346.142Z" stroke="url(#paint49_linear_116_1695)" stroke-width="4"/>
<path opacity="0.217391" d="M405.11 -378.941C412.896 -379.457 419.117 -372.309 420.486 -361.272L457.403 -63.6627C458.241 -56.9091 457.153 -49.448 454.382 -42.938L281.453 363.277C279.245 368.462 276.099 372.738 272.47 375.483L22.8137 564.319C16.4641 569.121 9.45504 568.648 4.6167 563.088L-129.833 408.589C-134.671 403.029 -136.54 393.301 -134.685 383.332L-61.7718 -8.603C-60.7118 -14.3004 -58.5072 -19.6589 -55.4784 -23.9011L181.774 -356.198C185.576 -361.524 190.395 -364.697 195.16 -365.013L405.11 -378.941Z" stroke="url(#paint50_linear_116_1695)" stroke-width="4"/>
<path opacity="0.231884" d="M385.632 -410.195C393.428 -411.301 399.916 -404.782 401.695 -394.052L449.541 -105.479C450.638 -98.8636 449.807 -91.3797 447.235 -84.6994L289.008 326.219C286.953 331.556 283.908 336.061 280.319 339.075L37.3368 543.105C31.1071 548.336 24.0403 548.426 18.9777 543.339L-121.305 402.361C-126.367 397.273 -128.595 387.843 -127.091 377.863L-68.4413 -11.4143C-67.5751 -17.164 -65.5289 -22.6732 -62.6028 -27.1343L162.709 -370.636C166.372 -376.22 171.139 -379.748 175.946 -380.431L385.632 -410.195Z" stroke="url(#paint51_linear_116_1695)" stroke-width="4"/>
<path opacity="0.246377" d="M365.828 -439.895C373.613 -441.582 380.343 -435.702 382.523 -425.311L440.988 -146.511C442.342 -140.053 441.772 -132.567 439.407 -125.732L296.048 288.548C294.153 294.024 291.218 298.752 287.678 302.03L51.8999 520.389C45.806 526.032 38.7026 526.682 33.4326 522.078L-112.222 394.843C-117.492 390.24 -120.068 381.135 -118.918 371.172L-74.4419 -14.2963C-73.7741 -20.0835 -71.8935 -25.7319 -69.0783 -30.4043L143.898 -383.872C147.411 -389.703 152.115 -393.578 156.953 -394.626L365.828 -439.895Z" stroke="url(#paint52_linear_116_1695)" stroke-width="4"/>
<path opacity="0.26087" d="M345.76 -468.063C353.511 -470.319 360.459 -465.089 363.027 -455.067L431.773 -186.736C433.382 -180.457 433.077 -172.987 430.928 -166.015L302.551 250.301C300.822 255.905 298.006 260.847 294.524 264.386L66.4484 496.178C60.5058 502.218 53.3862 503.423 47.9261 499.314L-102.629 386.003C-108.089 381.894 -111.003 373.137 -110.21 363.222L-79.7718 -17.3164C-79.3071 -23.1263 -77.5987 -28.9017 -74.9026 -33.7771L125.391 -395.968C128.745 -402.033 133.373 -406.249 138.23 -407.663L345.76 -468.063Z" stroke="url(#paint53_linear_116_1695)" stroke-width="4"/>
<path opacity="0.275362" d="M325.481 -494.706C333.177 -497.517 340.318 -492.944 343.262 -483.319L421.924 -226.113C423.784 -220.03 423.747 -212.6 421.82 -205.508L308.49 211.536C306.936 217.256 304.248 222.404 300.832 226.198L80.9233 470.512C75.1469 476.929 68.0318 478.682 62.3993 475.075L-92.5781 375.829C-98.2105 372.222 -101.451 363.837 -101.016 354L-84.4366 -20.5246C-84.1791 -26.3415 -82.6502 -32.232 -80.0814 -37.3017L107.23 -406.969C110.415 -413.255 114.954 -417.802 119.818 -419.579L325.481 -494.706Z" stroke="url(#paint54_linear_116_1695)" stroke-width="4"/>
<path opacity="0.289855" d="M305.053 -519.833C312.673 -523.185 319.982 -519.271 323.288 -510.07L411.475 -264.602C413.583 -258.735 413.814 -251.364 412.117 -244.171L313.848 172.32C312.475 178.141 309.922 183.484 306.582 187.529L95.2727 443.431C89.6768 450.208 82.5871 452.5 76.8001 449.401L-82.113 364.319C-87.9001 361.221 -91.4556 353.23 -91.3777 343.499L-88.4365 -23.9644C-88.3901 -29.7722 -87.047 -35.763 -84.6139 -41.0172L89.4621 -416.92C92.4686 -423.413 96.9075 -428.282 101.766 -430.419L305.053 -519.833Z" stroke="url(#paint55_linear_116_1695)" stroke-width="4"/>
<path opacity="0.304348" d="M284.528 -543.466C292.052 -547.341 299.504 -544.089 303.156 -535.335L400.454 -302.172C402.804 -296.54 403.307 -289.249 401.846 -281.973L318.603 132.706C317.416 138.616 315.008 144.145 311.753 148.434L109.439 414.978C104.037 422.095 96.9931 424.914 91.0698 422.329L-71.2875 351.469C-77.2108 348.884 -81.0681 341.307 -81.3468 331.711L-91.782 -27.6858C-91.9499 -33.4682 -90.7996 -39.5464 -88.5103 -44.9749L72.1255 -425.877C74.9442 -432.56 79.2705 -437.743 84.1112 -440.237L284.528 -543.466Z" stroke="url(#paint56_linear_116_1695)" stroke-width="4"/>
<path opacity="0.318841" d="M263.961 -565.632C271.37 -570.014 278.94 -567.421 282.924 -559.137L388.893 -338.8C391.48 -333.421 392.254 -326.233 391.037 -318.893L322.734 92.7505C321.741 98.7341 319.486 104.438 316.325 108.963L123.369 385.192C118.175 392.628 111.195 395.962 105.154 393.893L-60.1511 337.275C-66.1923 335.206 -70.338 328.061 -70.9709 318.629L-94.4821 -31.7414C-94.8672 -37.4813 -93.9162 -43.6319 -91.7788 -49.2234L55.2588 -433.899C57.8807 -440.758 62.082 -446.243 66.8928 -449.088L263.961 -565.632Z" stroke="url(#paint57_linear_116_1695)" stroke-width="4"/>
<path opacity="0.333333" d="M243.412 -586.357C250.687 -591.225 258.35 -589.288 262.649 -581.495L376.83 -374.461C379.647 -369.352 380.693 -362.286 379.723 -354.902L326.23 52.5168C325.437 58.5587 323.345 64.4247 320.287 69.1789L137.014 354.126C132.04 361.86 125.144 365.695 119.003 364.143L-48.7518 321.744C-54.8924 320.191 -59.3115 313.496 -60.2953 304.256L-96.5444 -36.1747C-97.1492 -41.8545 -96.403 -48.0607 -94.4258 -53.8034L38.9032 -441.044C41.3196 -448.062 45.3836 -453.837 50.1523 -457.028L243.412 -586.357Z" stroke="url(#paint58_linear_116_1695)" stroke-width="4"/>
<path opacity="0.347826" d="M222.932 -605.679C230.056 -611.014 237.789 -609.727 242.384 -602.442L364.298 -409.138C367.339 -404.316 368.655 -397.394 367.939 -389.986L329.078 12.0575C328.49 18.1418 326.568 24.157 323.623 29.1315L150.323 321.825C145.58 329.835 138.788 334.156 132.566 333.121L-37.1375 304.877C-43.3594 303.842 -48.0382 297.612 -49.3686 288.591L-97.9807 -41.0353C-98.8068 -46.6373 -98.272 -52.8835 -96.4628 -58.7645L23.0917 -447.379C25.2945 -454.539 29.2103 -460.591 33.9247 -464.122L222.932 -605.679Z" stroke="url(#paint59_linear_116_1695)" stroke-width="4"/>
<path opacity="0.362319" d="M202.572 -623.631C209.528 -629.412 217.307 -628.768 222.181 -622.006L351.332 -442.812C354.588 -438.294 356.173 -431.536 355.715 -424.125L331.264 -28.5649C330.886 -22.4545 329.142 -16.3025 326.319 -11.1169L163.247 288.348C158.747 296.612 152.075 301.402 145.79 300.881L-25.3613 286.692C-31.6462 286.17 -36.5685 280.42 -38.24 271.644L-98.808 -46.3616C-99.8568 -51.8682 -99.5378 -58.1383 -97.9041 -64.1446L7.85661 -452.964C9.83784 -460.248 13.5935 -466.564 18.2414 -470.427L202.572 -623.631Z" stroke="url(#paint60_linear_116_1695)" stroke-width="4"/>
<path opacity="0.376812" d="M182.39 -640.253C189.163 -646.459 196.964 -646.446 202.098 -640.221L337.972 -475.466C341.435 -471.266 343.287 -464.695 343.091 -457.304L332.785 -69.2903C332.622 -63.1713 331.065 -56.8978 328.372 -51.5116L175.745 253.755C171.498 262.249 164.964 267.491 158.634 267.481L-13.466 267.205C-19.7959 267.195 -24.9459 261.935 -26.9518 253.43L-99.0351 -52.1966C-100.307 -57.5892 -100.209 -63.865 -98.7585 -69.982L-6.7668 -457.864C-5.01445 -465.253 -1.43066 -471.816 3.13854 -476.002L182.39 -640.253Z" stroke="url(#paint61_linear_116_1695)" stroke-width="4"/>
<path opacity="0.391304" d="M162.431 -655.595C169.005 -662.203 176.809 -662.811 182.183 -657.136L324.252 -507.097C327.913 -503.23 330.029 -496.866 330.098 -489.516L333.63 -110.063C333.687 -103.953 332.324 -97.5736 329.77 -91.9977L187.771 218.1C183.786 226.803 177.406 232.477 171.049 232.973L-1.50375 246.431C-7.86075 246.927 -13.2221 242.168 -15.5549 233.958L-98.684 -58.5817C-100.179 -63.8419 -100.307 -70.1054 -99.0462 -76.318L-20.7549 -462.152C-19.2383 -469.626 -15.8364 -476.421 -11.3579 -480.922L162.431 -655.595Z" stroke="url(#paint62_linear_116_1695)" stroke-width="4"/>
<path opacity="0.405797" d="M142.741 -669.693C149.104 -676.68 156.886 -677.896 162.482 -672.779L310.206 -537.686C314.055 -534.166 316.43 -528.029 316.766 -520.741L333.792 -150.816C334.072 -144.734 332.91 -138.264 330.506 -132.511L199.279 181.461C195.565 190.347 189.355 196.434 182.989 197.429L10.4742 224.403C4.10767 225.399 -1.44794 221.151 -4.09916 213.261L-97.7757 -65.5464C-99.4922 -70.6553 -99.8491 -76.8868 -98.7854 -83.1788L-34.0834 -465.883C-32.8087 -473.423 -29.6006 -480.433 -25.2245 -485.238L142.741 -669.693Z" stroke="url(#paint63_linear_116_1695)" stroke-width="4"/>
<path opacity="0.42029" d="M123.372 -682.602C129.509 -689.945 137.251 -691.756 143.048 -687.205L295.876 -567.234C299.902 -564.074 302.532 -558.185 303.136 -550.982L333.272 -191.494C333.778 -185.459 332.826 -178.917 330.578 -172.999L210.234 143.896C206.799 152.942 200.774 159.422 194.415 160.909L22.4267 201.146C16.0677 202.633 10.3341 198.904 7.37395 191.355L-96.3262 -73.1261C-98.2628 -78.0653 -98.852 -84.2462 -97.9913 -90.6013L-46.7273 -469.133C-45.7001 -476.717 -42.6947 -483.924 -38.4327 -489.023L123.372 -682.602Z" stroke="url(#paint64_linear_116_1695)" stroke-width="4"/>
<path opacity="0.434783" d="M104.371 -694.387C110.272 -702.063 117.953 -704.453 123.932 -700.474L281.304 -595.753C285.496 -592.964 288.375 -587.342 289.248 -580.246L332.077 -232.053C332.811 -226.084 332.073 -219.487 329.991 -213.418L220.606 105.464C217.456 114.645 211.629 121.497 205.295 123.468L34.3116 176.676C27.977 178.648 22.0833 175.443 18.8246 168.256L-94.3522 -81.3665C-96.5063 -86.1175 -97.3292 -92.2279 -96.6775 -98.6286L-58.66 -471.981C-57.8852 -479.589 -55.0923 -486.976 -50.9555 -492.357L104.371 -694.387Z" stroke="url(#paint65_linear_116_1695)" stroke-width="4"/>
<path opacity="0.449275" d="M85.7705 -705.088C91.4243 -713.072 99.0257 -716.025 105.166 -712.623L266.516 -623.227C270.861 -620.82 273.982 -615.485 275.124 -608.518L330.196 -272.418C331.16 -266.534 330.641 -259.902 328.733 -253.696L230.346 66.2514C227.488 75.5442 221.873 82.7465 215.579 85.1917L46.0721 151.047C39.7784 153.493 33.7412 150.817 30.1953 144.012L-91.8889 -90.2793C-94.2568 -94.8236 -95.316 -100.843 -94.8784 -107.271L-69.8769 -474.481C-69.3587 -482.093 -66.7873 -489.639 -62.7869 -495.289L85.7705 -705.088Z" stroke="url(#paint66_linear_116_1695)" stroke-width="4"/>
<path opacity="0.463768" d="M67.6218 -714.775C73.0181 -723.045 80.5211 -726.544 86.8034 -723.72L251.559 -649.675C256.045 -647.659 259.402 -642.629 260.811 -635.815L327.643 -312.549C328.837 -306.771 328.545 -300.121 326.817 -293.794L239.434 26.3179C236.873 35.6978 231.484 43.2271 225.247 46.1355L57.6757 124.281C51.439 127.189 45.2767 125.047 41.4557 118.643L-88.9485 -99.9052C-91.526 -104.225 -92.8215 -110.134 -92.6026 -116.571L-80.3519 -476.716C-80.0936 -484.309 -77.7521 -491.995 -73.8986 -497.9L67.6218 -714.775Z" stroke="url(#paint67_linear_116_1695)" stroke-width="4"/>
<path opacity="0.478261" d="M49.9616 -723.504C55.0914 -732.035 62.4789 -736.062 68.8829 -733.818L236.469 -675.098C241.083 -673.481 244.666 -668.776 246.34 -662.135L324.423 -352.384C325.848 -346.731 325.786 -340.085 324.247 -333.652L247.84 -14.2555C245.581 -4.81302 240.427 3.02071 234.263 6.38091L69.0783 96.4256C62.9143 99.7856 56.6442 98.1792 52.5609 92.194L-85.558 -110.261C-88.3398 -114.339 -89.8718 -120.116 -89.8754 -126.543L-90.0747 -478.75C-90.0789 -486.301 -87.9753 -494.107 -84.2793 -500.254L49.9616 -723.504Z" stroke="url(#paint68_linear_116_1695)" stroke-width="4"/>
<path opacity="0.492754" d="M32.8225 -731.341C37.6774 -740.11 44.9327 -744.646 51.4385 -742.981L221.28 -699.512C226.009 -698.301 229.809 -693.936 231.745 -687.49L320.542 -391.874C322.196 -386.367 322.367 -379.743 321.023 -373.221L255.534 -55.3979C253.58 -45.9169 248.673 -37.8015 242.596 -34.002L80.2357 67.5207C74.1594 71.3201 67.799 70.2504 63.4671 64.6999L-81.7482 -121.371C-84.7282 -125.19 -86.4959 -130.815 -86.7253 -137.213L-99.0404 -480.653C-99.3089 -488.141 -97.45 -496.045 -93.9211 -502.419L32.8225 -731.341Z" stroke="url(#paint69_linear_116_1695)" stroke-width="4"/>
<path opacity="0.507246" d="M16.2424 -738.354C20.815 -747.337 27.9225 -752.364 34.5103 -751.276L206.031 -722.933C210.861 -722.135 214.869 -718.126 217.062 -711.897L316.013 -430.972C317.895 -425.63 318.302 -419.051 317.159 -412.457L262.497 -97.0388C260.851 -87.5436 256.201 -79.169 250.227 -74.9433L91.1123 37.6087C85.1386 41.8342 78.7058 41.2991 74.1396 36.1978L-77.5409 -133.26C-80.7119 -136.803 -82.7127 -142.255 -83.1704 -148.604L-107.237 -482.5C-107.77 -489.903 -106.163 -497.885 -102.81 -504.47L16.2424 -738.354Z" stroke="url(#paint70_linear_116_1695)" stroke-width="4"/>
<path opacity="0.521739" d="M0.253513 -744.607C4.53706 -753.781 11.481 -759.279 18.1312 -758.764L190.76 -745.377C195.676 -744.996 199.879 -741.357 202.326 -735.366L310.85 -469.627C312.956 -464.47 313.602 -457.955 312.666 -451.306L268.707 -139.097C267.372 -129.611 262.987 -121.001 257.13 -116.363L101.671 6.73977C95.8139 11.3776 89.3259 11.3767 84.5403 6.7378L-72.9641 -145.939C-76.3182 -149.191 -78.5492 -154.451 -79.2366 -160.731L-114.661 -484.355C-115.46 -491.651 -114.108 -499.689 -110.942 -506.47L0.253513 -744.607Z" stroke="url(#paint71_linear_116_1695)" stroke-width="4"/>
<path opacity="0.536232" d="M-15.1143 -750.173C-11.1259 -759.514 -4.36036 -765.463 2.33246 -765.516L175.501 -766.866C180.489 -766.905 184.877 -763.653 187.57 -757.919L305.068 -507.798C307.394 -502.846 308.28 -496.415 307.555 -489.729L274.149 -181.503C273.125 -172.05 269.015 -163.229 263.289 -158.194L111.876 -25.0418C106.15 -20.0066 99.626 -19.476 94.6367 -23.6402L-68.045 -159.429C-71.5735 -162.374 -74.0305 -167.423 -74.9486 -173.614L-121.311 -486.291C-122.373 -493.459 -121.283 -501.529 -118.31 -508.49L-15.1143 -750.173Z" stroke="url(#paint72_linear_116_1695)" stroke-width="4"/>
<path opacity="0.550725" d="M-29.8445 -755.104C-26.1564 -764.588 -19.5832 -770.969 -12.8672 -771.583L160.281 -787.408C165.325 -787.869 169.885 -785.013 172.818 -779.557L298.673 -545.422C301.216 -540.692 302.341 -534.367 301.832 -527.663L278.799 -224.161C278.086 -214.765 274.259 -205.755 268.677 -200.338L121.685 -57.6634C116.104 -52.2459 109.561 -51.189 104.384 -54.8688L-62.8219 -173.72C-66.5152 -176.345 -69.1938 -181.163 -70.3424 -187.246L-127.196 -488.355C-128.521 -495.373 -127.695 -503.456 -124.925 -510.58L-29.8445 -755.104Z" stroke="url(#paint73_linear_116_1695)" stroke-width="4"/>
<path opacity="0.565217" d="M-43.8995 -759.496C-40.5165 -769.101 -34.149 -775.891 -27.4288 -777.059L145.146 -807.051C150.232 -807.935 154.951 -805.489 158.116 -800.328L291.698 -582.484C294.451 -577.994 295.815 -571.795 295.526 -565.091L282.66 -267.024C282.257 -257.706 278.718 -248.533 273.294 -242.749L131.079 -91.1001C125.656 -85.3165 119.112 -83.7381 113.764 -86.9244L-57.3095 -188.85C-61.1574 -191.143 -64.0516 -195.71 -65.4298 -201.665L-132.308 -490.639C-133.892 -497.486 -133.334 -505.559 -130.773 -512.828L-43.8995 -759.496Z" stroke="url(#paint74_linear_116_1695)" stroke-width="4"/>
</g>
</g>
<defs>
<linearGradient id="paint0_linear_116_1695" x1="1190.51" y1="1049.1" x2="2043.98" y2="873.337" gradientUnits="userSpaceOnUse">
<stop stop-color="#747578"/>
<stop offset="1" stop-color="white"/>
</linearGradient>
<linearGradient id="paint1_linear_116_1695" x1="1207.42" y1="1098.75" x2="2057.47" y2="890.659" gradientUnits="userSpaceOnUse">
<stop stop-color="#747578"/>
<stop offset="1" stop-color="white"/>
</linearGradient>
<linearGradient id="paint2_linear_116_1695" x1="1225.22" y1="1147.16" x2="2071.62" y2="905.529" gradientUnits="userSpaceOnUse">
<stop stop-color="#747578"/>
<stop offset="1" stop-color="white"/>
</linearGradient>
<linearGradient id="paint3_linear_116_1695" x1="1243.85" y1="1194.28" x2="2086.16" y2="917.676" gradientUnits="userSpaceOnUse">
<stop stop-color="#747578"/>
<stop offset="1" stop-color="white"/>
</linearGradient>
<linearGradient id="paint4_linear_116_1695" x1="1263.28" y1="1240.08" x2="2100.81" y2="926.878" gradientUnits="userSpaceOnUse">
<stop stop-color="#747578"/>
<stop offset="1" stop-color="white"/>
</linearGradient>
<linearGradient id="paint5_linear_116_1695" x1="1283.45" y1="1284.46" x2="2115.2" y2="932.867" gradientUnits="userSpaceOnUse">
<stop stop-color="#747578"/>
<stop offset="1" stop-color="white"/>
</linearGradient>
<linearGradient id="paint6_linear_116_1695" x1="1304.3" y1="1327.4" x2="2128.92" y2="935.461" gradientUnits="userSpaceOnUse">
<stop stop-color="#747578"/>
<stop offset="1" stop-color="white"/>
</linearGradient>
<linearGradient id="paint7_linear_116_1695" x1="1325.79" y1="1368.87" x2="2141.5" y2="934.478" gradientUnits="userSpaceOnUse">
<stop stop-color="#747578"/>
<stop offset="1" stop-color="white"/>
</linearGradient>
<linearGradient id="paint8_linear_116_1695" x1="1347.85" y1="1408.81" x2="2152.39" y2="929.803" gradientUnits="userSpaceOnUse">
<stop stop-color="#747578"/>
<stop offset="1" stop-color="white"/>
</linearGradient>
<linearGradient id="paint9_linear_116_1695" x1="1370.42" y1="1447.22" x2="2160.95" y2="921.398" gradientUnits="userSpaceOnUse">
<stop stop-color="#747578"/>
<stop offset="1" stop-color="white"/>
</linearGradient>
<linearGradient id="paint10_linear_116_1695" x1="1393.45" y1="1484.05" x2="2166.5" y2="909.296" gradientUnits="userSpaceOnUse">
<stop stop-color="#747578"/>
<stop offset="1" stop-color="white"/>
</linearGradient>
<linearGradient id="paint11_linear_116_1695" x1="1416.89" y1="1519.29" x2="2168.25" y2="893.697" gradientUnits="userSpaceOnUse">
<stop stop-color="#747578"/>
<stop offset="1" stop-color="white"/>
</linearGradient>
<linearGradient id="paint12_linear_116_1695" x1="1440.68" y1="1552.9" x2="2165.4" y2="874.935" gradientUnits="userSpaceOnUse">
<stop stop-color="#747578"/>
<stop offset="1" stop-color="white"/>
</linearGradient>
<linearGradient id="paint13_linear_116_1695" x1="1464.74" y1="1584.92" x2="2157.1" y2="853.588" gradientUnits="userSpaceOnUse">
<stop stop-color="#747578"/>
<stop offset="1" stop-color="white"/>
</linearGradient>
<linearGradient id="paint14_linear_116_1695" x1="1489.04" y1="1615.32" x2="2142.52" y2="830.438" gradientUnits="userSpaceOnUse">
<stop stop-color="#747578"/>
<stop offset="1" stop-color="white"/>
</linearGradient>
<linearGradient id="paint15_linear_116_1695" x1="1513.5" y1="1644.1" x2="2120.96" y2="806.553" gradientUnits="userSpaceOnUse">
<stop stop-color="#747578"/>
<stop offset="1" stop-color="white"/>
</linearGradient>
<linearGradient id="paint16_linear_116_1695" x1="1538.07" y1="1671.26" x2="2091.88" y2="783.248" gradientUnits="userSpaceOnUse">
<stop stop-color="#747578"/>
<stop offset="1" stop-color="white"/>
</linearGradient>
<linearGradient id="paint17_linear_116_1695" x1="1562.69" y1="1696.84" x2="2055.03" y2="762.124" gradientUnits="userSpaceOnUse">
<stop stop-color="#747578"/>
<stop offset="1" stop-color="white"/>
</linearGradient>
<linearGradient id="paint18_linear_116_1695" x1="1587.31" y1="1720.84" x2="2010.57" y2="744.916" gradientUnits="userSpaceOnUse">
<stop stop-color="#747578"/>
<stop offset="1" stop-color="white"/>
</linearGradient>
<linearGradient id="paint19_linear_116_1695" x1="1611.87" y1="1743.28" x2="1959.11" y2="733.434" gradientUnits="userSpaceOnUse">
<stop stop-color="#747578"/>
<stop offset="1" stop-color="white"/>
</linearGradient>
<linearGradient id="paint20_linear_116_1695" x1="1636.31" y1="1764.18" x2="1901.8" y2="729.385" gradientUnits="userSpaceOnUse">
<stop stop-color="#747578"/>
<stop offset="1" stop-color="white"/>
</linearGradient>
<linearGradient id="paint21_linear_116_1695" x1="1660.59" y1="1783.59" x2="1840.3" y2="734.192" gradientUnits="userSpaceOnUse">
<stop stop-color="#747578"/>
<stop offset="1" stop-color="white"/>
</linearGradient>
<linearGradient id="paint22_linear_116_1695" x1="1684.64" y1="1801.52" x2="1776.66" y2="748.808" gradientUnits="userSpaceOnUse">
<stop stop-color="#747578"/>
<stop offset="1" stop-color="white"/>
</linearGradient>
<linearGradient id="paint23_linear_116_1695" x1="1708.43" y1="1818.04" x2="1713.17" y2="773.594" gradientUnits="userSpaceOnUse">
<stop stop-color="#747578"/>
<stop offset="1" stop-color="white"/>
</linearGradient>
<linearGradient id="paint24_linear_116_1695" x1="1731.9" y1="1833.18" x2="1652.14" y2="808.247" gradientUnits="userSpaceOnUse">
<stop stop-color="#747578"/>
<stop offset="1" stop-color="white"/>
</linearGradient>
<linearGradient id="paint25_linear_116_1695" x1="1754.99" y1="1846.98" x2="1595.65" y2="851.85" gradientUnits="userSpaceOnUse">
<stop stop-color="#747578"/>
<stop offset="1" stop-color="white"/>
</linearGradient>
<linearGradient id="paint26_linear_116_1695" x1="1777.68" y1="1859.5" x2="1545.43" y2="902.994" gradientUnits="userSpaceOnUse">
<stop stop-color="#747578"/>
<stop offset="1" stop-color="white"/>
</linearGradient>
<linearGradient id="paint27_linear_116_1695" x1="1799.93" y1="1870.79" x2="1502.64" y2="959.934" gradientUnits="userSpaceOnUse">
<stop stop-color="#747578"/>
<stop offset="1" stop-color="white"/>
</linearGradient>
<linearGradient id="paint28_linear_116_1695" x1="1821.67" y1="1880.9" x2="1467.94" y2="1020.82" gradientUnits="userSpaceOnUse">
<stop stop-color="#747578"/>
<stop offset="1" stop-color="white"/>
</linearGradient>
<linearGradient id="paint29_linear_116_1695" x1="1842.89" y1="1889.92" x2="1441.45" y2="1083.86" gradientUnits="userSpaceOnUse">
<stop stop-color="#747578"/>
<stop offset="1" stop-color="white"/>
</linearGradient>
<linearGradient id="paint30_linear_116_1695" x1="1863.54" y1="1897.88" x2="1422.88" y2="1147.4" gradientUnits="userSpaceOnUse">
<stop stop-color="#747578"/>
<stop offset="1" stop-color="white"/>
</linearGradient>
<linearGradient id="paint31_linear_116_1695" x1="1883.6" y1="1904.86" x2="1411.62" y2="1210.12" gradientUnits="userSpaceOnUse">
<stop stop-color="#747578"/>
<stop offset="1" stop-color="white"/>
</linearGradient>
<linearGradient id="paint32_linear_116_1695" x1="1903.02" y1="1910.93" x2="1406.86" y2="1270.93" gradientUnits="userSpaceOnUse">
<stop stop-color="#747578"/>
<stop offset="1" stop-color="white"/>
</linearGradient>
<linearGradient id="paint33_linear_116_1695" x1="1921.79" y1="1916.15" x2="1407.73" y2="1329.07" gradientUnits="userSpaceOnUse">
<stop stop-color="#747578"/>
<stop offset="1" stop-color="white"/>
</linearGradient>
<linearGradient id="paint34_linear_116_1695" x1="1939.88" y1="1920.6" x2="1413.28" y2="1384.04" gradientUnits="userSpaceOnUse">
<stop stop-color="#747578"/>
<stop offset="1" stop-color="white"/>
</linearGradient>
<linearGradient id="paint35_linear_116_1695" x1="1957.26" y1="1924.34" x2="1422.65" y2="1435.55" gradientUnits="userSpaceOnUse">
<stop stop-color="#747578"/>
<stop offset="1" stop-color="white"/>
</linearGradient>
<linearGradient id="paint36_linear_116_1695" x1="623.813" y1="224.387" x2="-246.769" y2="261.609" gradientUnits="userSpaceOnUse">
<stop stop-color="#747578"/>
<stop offset="1" stop-color="white"/>
</linearGradient>
<linearGradient id="paint37_linear_116_1695" x1="615.051" y1="172.681" x2="-257.323" y2="242.354" gradientUnits="userSpaceOnUse">
<stop stop-color="#747578"/>
<stop offset="1" stop-color="white"/>
</linearGradient>
<linearGradient id="paint38_linear_116_1695" x1="605.215" y1="122.043" x2="-268.914" y2="225.416" gradientUnits="userSpaceOnUse">
<stop stop-color="#747578"/>
<stop offset="1" stop-color="white"/>
</linearGradient>
<linearGradient id="paint39_linear_116_1695" x1="594.343" y1="72.5532" x2="-281.332" y2="211.103" gradientUnits="userSpaceOnUse">
<stop stop-color="#747578"/>
<stop offset="1" stop-color="white"/>
</linearGradient>
<linearGradient id="paint40_linear_116_1695" x1="582.477" y1="24.2444" x2="-294.319" y2="199.68" gradientUnits="userSpaceOnUse">
<stop stop-color="#747578"/>
<stop offset="1" stop-color="white"/>
</linearGradient>
<linearGradient id="paint41_linear_116_1695" x1="569.653" y1="-22.7869" x2="-307.568" y2="191.47" gradientUnits="userSpaceOnUse">
<stop stop-color="#747578"/>
<stop offset="1" stop-color="white"/>
</linearGradient>
<linearGradient id="paint42_linear_116_1695" x1="555.927" y1="-68.5134" x2="-320.699" y2="186.718" gradientUnits="userSpaceOnUse">
<stop stop-color="#747578"/>
<stop offset="1" stop-color="white"/>
</linearGradient>
<linearGradient id="paint43_linear_116_1695" x1="541.338" y1="-112.875" x2="-333.275" y2="185.68" gradientUnits="userSpaceOnUse">
<stop stop-color="#747578"/>
<stop offset="1" stop-color="white"/>
</linearGradient>
<linearGradient id="paint44_linear_116_1695" x1="525.94" y1="-155.833" x2="-344.769" y2="188.556" gradientUnits="userSpaceOnUse">
<stop stop-color="#747578"/>
<stop offset="1" stop-color="white"/>
</linearGradient>
<linearGradient id="paint45_linear_116_1695" x1="509.785" y1="-197.346" x2="-354.57" y2="195.493" gradientUnits="userSpaceOnUse">
<stop stop-color="#747578"/>
<stop offset="1" stop-color="white"/>
</linearGradient>
<linearGradient id="paint46_linear_116_1695" x1="492.924" y1="-237.377" x2="-361.979" y2="206.553" gradientUnits="userSpaceOnUse">
<stop stop-color="#747578"/>
<stop offset="1" stop-color="white"/>
</linearGradient>
<linearGradient id="paint47_linear_116_1695" x1="475.414" y1="-275.905" x2="-366.205" y2="221.672" gradientUnits="userSpaceOnUse">
<stop stop-color="#747578"/>
<stop offset="1" stop-color="white"/>
</linearGradient>
<linearGradient id="paint48_linear_116_1695" x1="457.303" y1="-312.891" x2="-366.388" y2="240.649" gradientUnits="userSpaceOnUse">
<stop stop-color="#747578"/>
<stop offset="1" stop-color="white"/>
</linearGradient>
<linearGradient id="paint49_linear_116_1695" x1="438.659" y1="-348.34" x2="-361.594" y2="263.048" gradientUnits="userSpaceOnUse">
<stop stop-color="#747578"/>
<stop offset="1" stop-color="white"/>
</linearGradient>
<linearGradient id="paint50_linear_116_1695" x1="419.529" y1="-382.226" x2="-350.906" y2="288.228" gradientUnits="userSpaceOnUse">
<stop stop-color="#747578"/>
<stop offset="1" stop-color="white"/>
</linearGradient>
<linearGradient id="paint51_linear_116_1695" x1="399.978" y1="-414.545" x2="-333.435" y2="315.25" gradientUnits="userSpaceOnUse">
<stop stop-color="#747578"/>
<stop offset="1" stop-color="white"/>
</linearGradient>
<linearGradient id="paint52_linear_116_1695" x1="380.061" y1="-445.284" x2="-308.449" y2="342.899" gradientUnits="userSpaceOnUse">
<stop stop-color="#747578"/>
<stop offset="1" stop-color="white"/>
</linearGradient>
<linearGradient id="paint53_linear_116_1695" x1="359.838" y1="-474.462" x2="-275.449" y2="369.641" gradientUnits="userSpaceOnUse">
<stop stop-color="#747578"/>
<stop offset="1" stop-color="white"/>
</linearGradient>
<linearGradient id="paint54_linear_116_1695" x1="339.367" y1="-502.084" x2="-234.304" y2="393.728" gradientUnits="userSpaceOnUse">
<stop stop-color="#747578"/>
<stop offset="1" stop-color="white"/>
</linearGradient>
<linearGradient id="paint55_linear_116_1695" x1="318.708" y1="-528.155" x2="-185.337" y2="413.28" gradientUnits="userSpaceOnUse">
<stop stop-color="#747578"/>
<stop offset="1" stop-color="white"/>
</linearGradient>
<linearGradient id="paint56_linear_116_1695" x1="297.917" y1="-552.693" x2="-129.412" y2="426.429" gradientUnits="userSpaceOnUse">
<stop stop-color="#747578"/>
<stop offset="1" stop-color="white"/>
</linearGradient>
<linearGradient id="paint57_linear_116_1695" x1="277.05" y1="-575.725" x2="-67.9342" y2="431.505" gradientUnits="userSpaceOnUse">
<stop stop-color="#747578"/>
<stop offset="1" stop-color="white"/>
</linearGradient>
<linearGradient id="paint58_linear_116_1695" x1="256.168" y1="-597.274" x2="-2.77606" y2="427.239" gradientUnits="userSpaceOnUse">
<stop stop-color="#747578"/>
<stop offset="1" stop-color="white"/>
</linearGradient>
<linearGradient id="paint59_linear_116_1695" x1="235.326" y1="-617.377" x2="63.8572" y2="412.91" gradientUnits="userSpaceOnUse">
<stop stop-color="#747578"/>
<stop offset="1" stop-color="white"/>
</linearGradient>
<linearGradient id="paint60_linear_116_1695" x1="214.575" y1="-636.065" x2="129.639" y2="388.447" gradientUnits="userSpaceOnUse">
<stop stop-color="#747578"/>
<stop offset="1" stop-color="white"/>
</linearGradient>
<linearGradient id="paint61_linear_116_1695" x1="193.976" y1="-653.378" x2="192.361" y2="354.423" gradientUnits="userSpaceOnUse">
<stop stop-color="#747578"/>
<stop offset="1" stop-color="white"/>
</linearGradient>
<linearGradient id="paint62_linear_116_1695" x1="173.577" y1="-669.363" x2="250.112" y2="311.957" gradientUnits="userSpaceOnUse">
<stop stop-color="#747578"/>
<stop offset="1" stop-color="white"/>
</linearGradient>
<linearGradient id="paint63_linear_116_1695" x1="153.424" y1="-684.058" x2="301.439" y2="262.579" gradientUnits="userSpaceOnUse">
<stop stop-color="#747578"/>
<stop offset="1" stop-color="white"/>
</linearGradient>
<linearGradient id="paint64_linear_116_1695" x1="133.571" y1="-697.517" x2="345.418" y2="208.016" gradientUnits="userSpaceOnUse">
<stop stop-color="#747578"/>
<stop offset="1" stop-color="white"/>
</linearGradient>
<linearGradient id="paint65_linear_116_1695" x1="114.069" y1="-709.804" x2="381.638" y2="150.019" gradientUnits="userSpaceOnUse">
<stop stop-color="#747578"/>
<stop offset="1" stop-color="white"/>
</linearGradient>
<linearGradient id="paint66_linear_116_1695" x1="94.9505" y1="-720.96" x2="410.118" y2="90.254" gradientUnits="userSpaceOnUse">
<stop stop-color="#747578"/>
<stop offset="1" stop-color="white"/>
</linearGradient>
<linearGradient id="paint67_linear_116_1695" x1="76.2697" y1="-731.055" x2="431.249" y2="30.1444" gradientUnits="userSpaceOnUse">
<stop stop-color="#747578"/>
<stop offset="1" stop-color="white"/>
</linearGradient>
<linearGradient id="paint68_linear_116_1695" x1="58.0645" y1="-740.144" x2="445.651" y2="-29.1259" gradientUnits="userSpaceOnUse">
<stop stop-color="#747578"/>
<stop offset="1" stop-color="white"/>
</linearGradient>
<linearGradient id="paint69_linear_116_1695" x1="40.3691" y1="-748.294" x2="454.084" y2="-86.6582" gradientUnits="userSpaceOnUse">
<stop stop-color="#747578"/>
<stop offset="1" stop-color="white"/>
</linearGradient>
<linearGradient id="paint70_linear_116_1695" x1="23.2237" y1="-755.575" x2="457.377" y2="-141.81" gradientUnits="userSpaceOnUse">
<stop stop-color="#747578"/>
<stop offset="1" stop-color="white"/>
</linearGradient>
<linearGradient id="paint71_linear_116_1695" x1="6.66091" y1="-762.05" x2="456.355" y2="-194.157" gradientUnits="userSpaceOnUse">
<stop stop-color="#747578"/>
<stop offset="1" stop-color="white"/>
</linearGradient>
<linearGradient id="paint72_linear_116_1695" x1="-9.28761" y1="-767.793" x2="451.801" y2="-243.467" gradientUnits="userSpaceOnUse">
<stop stop-color="#747578"/>
<stop offset="1" stop-color="white"/>
</linearGradient>
<linearGradient id="paint73_linear_116_1695" x1="-24.6034" y1="-772.856" x2="444.424" y2="-289.635" gradientUnits="userSpaceOnUse">
<stop stop-color="#747578"/>
<stop offset="1" stop-color="white"/>
</linearGradient>
<linearGradient id="paint74_linear_116_1695" x1="-39.2476" y1="-777.337" x2="434.875" y2="-332.71" gradientUnits="userSpaceOnUse">
<stop stop-color="#747578"/>
<stop offset="1" stop-color="white"/>
</linearGradient>
<clipPath id="clip0_116_1695">
<rect width="1920" height="1080" fill="white"/>
</clipPath>
</defs>
</svg>
