<svg width="936" height="1635" viewBox="0 0 936 1635" fill="none" xmlns="http://www.w3.org/2000/svg">
<g opacity="0.24">
<path opacity="0.0144928" d="M669.443 473.278C674.757 480.866 675.322 494.076 670.82 505.477L540.726 834.97C538.13 841.546 534.123 846.777 529.564 849.543L196.617 1051.54C193.064 1053.69 189.369 1054.23 186.027 1053.08L-86.7832 959.351C-93.0023 957.214 -97.201 949.54 -97.629 939.529L-110.403 640.76C-110.831 630.748 -107.415 620.116 -101.579 613.296L154.432 314.109C157.568 310.443 161.188 308.141 164.806 307.51L503.862 248.423C508.506 247.614 512.821 249.611 515.886 253.988L669.443 473.278Z" stroke="url(#paint0_linear_6_19223)" stroke-width="4"/>
<path opacity="0.0289855" d="M660.178 422.578C665.797 429.661 666.836 442.668 662.711 454.295L544.323 788.028C541.94 794.744 538.086 800.241 533.586 803.342L207.795 1027.82C204.286 1030.24 200.577 1031.06 197.163 1030.19L-78.9371 959.496C-85.2792 957.872 -89.7817 950.616 -90.5695 940.752L-113.918 648.401C-114.706 638.537 -111.645 627.753 -106.008 620.543L139.377 306.658C142.411 302.776 145.982 300.209 149.611 299.298L486.574 214.707C491.229 213.538 495.652 215.175 498.898 219.267L660.178 422.578Z" stroke="url(#paint1_linear_6_19223)" stroke-width="4"/>
<path opacity="0.0434783" d="M649.873 372.975C655.78 379.534 657.29 392.299 653.555 404.114L547.058 741.031C544.897 747.869 541.206 753.618 536.776 757.045L218.971 1002.94C215.515 1005.62 211.798 1006.73 208.321 1006.13L-70.2555 958.26C-76.7036 957.152 -81.4979 950.336 -82.6437 940.647L-116.371 655.445C-117.517 645.757 -114.818 634.856 -109.397 627.278L124.802 299.886C127.726 295.799 131.239 292.971 134.871 291.781L468.82 182.398C473.474 180.873 477.995 182.145 481.414 185.94L649.873 372.975Z" stroke="url(#paint2_linear_6_19223)" stroke-width="4"/>
<path opacity="0.057971" d="M638.567 324.547C644.746 330.565 646.721 343.045 643.387 355.011L548.928 694.064C546.994 701.004 543.476 706.989 539.128 710.734L230.101 976.933C226.706 979.857 222.992 981.253 219.459 980.934L-60.79 955.613C-67.3265 955.022 -72.3991 948.664 -73.8996 939.182L-117.782 661.829C-119.283 652.346 -116.954 641.36 -111.765 633.437L110.733 293.753C113.538 289.471 116.985 286.389 120.611 284.924L450.649 151.52C455.293 149.643 459.901 150.546 463.484 154.036L638.567 324.547Z" stroke="url(#paint3_linear_6_19223)" stroke-width="4"/>
<path opacity="0.0724638" d="M626.304 277.322C632.735 282.782 635.168 294.943 632.246 307.02L549.933 647.166C548.234 654.189 544.897 660.394 540.642 664.448L241.143 949.787C237.818 952.956 234.114 954.633 230.532 954.594L-50.591 951.485C-57.1988 951.412 -62.5357 945.531 -64.3864 936.282L-118.176 667.449C-120.027 658.2 -118.075 647.163 -113.132 638.919L97.1913 288.179C99.8705 283.711 103.244 280.382 106.856 278.643L432.115 122.052C436.737 119.827 441.421 120.359 445.161 123.534L626.304 277.322Z" stroke="url(#paint4_linear_6_19223)" stroke-width="4"/>
<path opacity="0.0869565" d="M613.124 231.394C619.789 236.284 622.671 248.083 620.168 260.233L550.071 600.444C548.611 607.53 545.466 613.94 541.315 618.292L252.054 921.57C248.805 924.975 245.12 926.931 241.498 927.172L-39.7155 945.882C-46.3768 946.325 -51.9623 940.937 -54.1573 931.95L-117.582 672.272C-119.777 663.286 -118.208 652.232 -113.524 643.691L84.1984 283.147C86.7448 278.504 90.0365 274.936 93.626 272.928L413.267 94.0351C417.855 91.4677 422.604 91.6271 426.491 94.4787L613.124 231.394Z" stroke="url(#paint5_linear_6_19223)" stroke-width="4"/>
<path opacity="0.101449" d="M599.081 186.786C605.959 191.093 609.279 202.496 607.202 214.678L549.353 553.935C548.137 561.065 545.193 567.663 541.155 572.304L262.797 892.281C259.634 895.917 255.975 898.149 252.321 898.671L-28.2119 938.747C-34.9093 939.704 -40.7276 934.825 -43.26 926.127L-116.024 676.209C-118.557 667.512 -117.372 656.474 -112.962 647.662L71.7802 278.579C74.1867 273.772 77.3879 269.97 80.9472 267.695L394.164 67.4432C398.707 64.5386 403.51 64.3237 407.535 66.8442L599.081 186.786Z" stroke="url(#paint6_linear_6_19223)" stroke-width="4"/>
<path opacity="0.115942" d="M584.217 143.554C591.287 147.269 595.032 158.239 593.386 170.414L547.78 507.719C546.813 514.873 544.076 521.642 540.163 526.561L273.327 861.967C270.257 865.826 266.634 868.329 262.955 869.132L-16.1428 930.072C-22.8581 931.538 -28.8915 927.18 -31.7529 918.798L-113.539 679.207C-116.4 670.824 -115.605 659.838 -111.48 650.783L59.9488 274.428C62.2086 269.468 65.312 265.442 68.8329 262.904L374.852 42.2828C379.339 39.0474 384.185 38.4565 388.34 40.6392L584.217 143.554Z" stroke="url(#paint7_linear_6_19223)" stroke-width="4"/>
<path opacity="0.130435" d="M568.588 101.733C575.828 104.848 579.983 115.353 578.771 127.48L545.365 461.852C544.65 469.009 542.13 475.933 538.351 481.117L283.609 830.659C280.64 834.734 277.06 837.504 273.364 838.588L-3.56076 919.833C-10.2762 921.803 -16.5078 917.98 -19.6889 909.938L-110.159 681.206C-113.34 673.163 -112.932 662.261 -109.105 652.989L48.7249 270.639C50.8315 265.536 53.829 261.293 57.3037 258.496L355.389 18.5384C359.81 14.9791 364.687 14.013 368.96 15.8514L568.588 101.733Z" stroke="url(#paint8_linear_6_19223)" stroke-width="4"/>
<path opacity="0.144928" d="M552.243 61.3584C559.632 63.8682 564.181 73.8773 563.405 85.9177L542.121 416.398C541.661 423.539 539.363 430.598 535.729 436.037L293.605 798.395C290.744 802.677 287.216 805.711 283.511 807.076L9.47535 908.02C2.77744 910.487 -3.63303 907.209 -7.12295 899.53L-105.918 682.153C-109.408 674.474 -109.389 663.689 -105.87 654.228L38.1236 267.155C40.0705 261.922 42.9541 257.47 46.3744 254.419L335.827 -3.80226C340.172 -7.67816 345.069 -9.01754 349.451 -7.52901L552.243 61.3584Z" stroke="url(#paint9_linear_6_19223)" stroke-width="4"/>
<path opacity="0.15942" d="M535.238 22.4633C542.752 24.365 547.677 33.8491 547.337 45.7635L538.059 371.42C537.857 378.525 535.789 385.702 532.309 391.383L303.278 765.22C300.533 769.701 297.064 772.994 293.358 774.639L22.9083 894.63C16.2455 897.586 9.67492 894.86 5.88775 887.567L-100.856 682.004C-104.643 674.71 -105.011 664.075 -101.809 654.454L28.1569 263.924C29.938 258.572 32.7011 253.92 36.0594 250.62L316.22 -24.7525C320.478 -28.9369 325.383 -30.6501 329.863 -29.5161L535.238 22.4633Z" stroke="url(#paint10_linear_6_19223)" stroke-width="4"/>
<path opacity="0.173913" d="M517.626 -14.9337C525.242 -13.6409 530.523 -4.70882 530.618 7.04111L533.197 326.968C533.254 334.015 531.423 341.292 528.107 347.201L312.593 731.17C309.971 735.841 306.571 739.389 302.871 741.311L36.6776 879.655C30.0674 883.09 23.3564 880.923 19.2849 874.036L-95.0144 680.706C-99.0857 673.819 -99.8368 663.366 -96.9613 653.613L18.8364 260.885C20.4457 255.427 23.0801 250.584 26.368 247.039L296.62 -44.3435C300.779 -48.8277 305.681 -50.9101 310.249 -50.1347L517.626 -14.9337Z" stroke="url(#paint11_linear_6_19223)" stroke-width="4"/>
<path opacity="0.188406" d="M499.457 -50.8C507.153 -50.1146 512.77 -41.7568 513.295 -30.2088L527.548 283.113C527.865 290.083 526.276 297.44 523.132 303.564L321.509 696.306C319.018 701.159 315.694 704.955 312.009 707.155L50.7185 863.114C44.1782 867.018 37.3474 865.412 33.0054 858.951L-88.4392 678.237C-92.7813 671.775 -93.9117 661.534 -91.3702 651.68L10.1643 257.997C11.5961 252.446 14.0946 247.421 17.3043 243.637L277.073 -62.5836C281.123 -67.3584 286.009 -69.8086 290.654 -69.395L499.457 -50.8Z" stroke="url(#paint12_linear_6_19223)" stroke-width="4"/>
<path opacity="0.202899" d="M480.8 -85.1422C488.553 -85.0606 494.482 -77.2989 495.433 -65.9892L521.143 239.881C521.72 246.753 520.38 254.172 517.418 260.497L330.007 660.655C327.654 665.679 324.414 669.718 320.753 672.191L64.9844 844.994C58.5311 849.353 51.601 848.313 47.0031 842.294L-81.1628 674.537C-85.7606 668.518 -87.2639 658.52 -85.0633 648.594L2.16048 255.181C3.40898 249.55 5.76445 244.353 8.8878 240.337L257.641 -79.528C261.573 -84.5835 266.431 -87.3979 271.142 -87.3484L480.8 -85.1422Z" stroke="url(#paint13_linear_6_19223)" stroke-width="4"/>
<path opacity="0.217391" d="M461.701 -117.941C469.487 -118.457 475.708 -111.309 477.077 -100.272L513.994 197.337C514.832 204.091 513.744 211.552 510.973 218.062L338.044 624.277C335.836 629.462 332.69 633.738 329.061 636.483L79.4047 825.319C73.0551 830.121 66.0461 829.648 61.2077 824.089L-73.2419 669.589C-78.0801 664.029 -79.9487 654.301 -78.0943 644.333L-5.18073 252.397C-4.12077 246.7 -1.91653 241.342 1.11212 237.1L238.365 -95.1983C242.167 -100.524 246.986 -103.697 251.751 -104.013L461.701 -117.941Z" stroke="url(#paint14_linear_6_19223)" stroke-width="4"/>
<path opacity="0.231884" d="M442.223 -149.195C450.019 -150.302 456.507 -143.782 458.286 -133.052L506.132 155.52C507.229 162.136 506.398 169.62 503.826 176.3L345.599 587.219C343.544 592.555 340.499 597.061 336.91 600.075L93.9279 804.105C87.6982 809.336 80.6313 809.426 75.5688 804.339L-64.7139 663.36C-69.7764 658.273 -72.0035 648.843 -70.4998 638.862L-11.8503 249.585C-10.984 243.836 -8.93789 238.326 -6.01179 233.865L219.3 -109.636C222.963 -115.221 227.73 -118.748 232.537 -119.431L442.223 -149.195Z" stroke="url(#paint15_linear_6_19223)" stroke-width="4"/>
<path opacity="0.246377" d="M422.418 -178.895C430.203 -180.582 436.934 -174.702 439.113 -164.311L497.578 114.489C498.932 120.947 498.363 128.433 495.998 135.268L352.639 549.548C350.744 555.024 347.809 559.751 344.269 563.03L108.49 781.389C102.397 787.032 95.2931 787.682 90.0232 783.078L-55.6312 655.843C-60.901 651.24 -63.4772 642.135 -62.3277 632.172L-17.8513 246.704C-17.1835 240.916 -15.303 235.268 -12.4877 230.596L200.488 -122.872C204.002 -128.703 208.705 -132.578 213.543 -133.627L422.418 -178.895Z" stroke="url(#paint16_linear_6_19223)" stroke-width="4"/>
<path opacity="0.26087" d="M402.351 -207.063C410.102 -209.318 417.05 -204.089 419.618 -194.067L488.364 74.2636C489.973 80.5435 489.669 88.0129 487.519 94.9847L359.142 511.301C357.414 516.905 354.598 521.847 351.116 525.386L123.04 757.179C117.097 763.218 109.977 764.423 104.517 760.314L-46.0378 647.003C-51.4979 642.894 -54.4117 634.137 -53.6188 624.222L-23.1805 243.684C-22.7158 237.874 -21.0074 232.098 -18.3113 227.223L181.982 -134.968C185.336 -141.033 189.964 -145.249 194.821 -146.663L402.351 -207.063Z" stroke="url(#paint17_linear_6_19223)" stroke-width="4"/>
<path opacity="0.275362" d="M382.072 -233.706C389.768 -236.517 396.91 -231.944 399.853 -222.319L478.516 34.8873C480.376 40.97 480.339 48.4 478.412 55.4915L365.082 472.536C363.528 478.256 360.839 483.404 357.424 487.198L137.515 731.512C131.738 737.929 124.623 739.682 118.991 736.075L-35.9866 636.829C-41.619 633.222 -44.8594 624.837 -44.4241 615L-27.845 240.475C-27.5876 234.658 -26.0587 228.768 -23.4899 223.698L163.822 -145.969C167.007 -152.255 171.546 -156.802 176.409 -158.579L382.072 -233.706Z" stroke="url(#paint18_linear_6_19223)" stroke-width="4"/>
<path opacity="0.289855" d="M361.644 -258.833C369.264 -262.185 376.574 -258.271 379.879 -249.07L468.067 -3.60199C470.175 2.26458 470.406 9.63582 468.708 16.8291L370.44 433.32C369.066 439.141 366.513 444.484 363.173 448.529L151.864 704.431C146.268 711.208 139.179 713.5 133.392 710.401L-25.5215 625.319C-31.3085 622.221 -34.8641 614.23 -34.7862 604.499L-31.845 237.036C-31.7985 231.228 -30.4555 225.237 -28.0224 219.983L146.054 -155.92C149.06 -162.413 153.499 -167.283 158.358 -169.42L361.644 -258.833Z" stroke="url(#paint19_linear_6_19223)" stroke-width="4"/>
<path opacity="0.304348" d="M341.118 -282.466C348.642 -286.341 356.094 -283.089 359.747 -274.336L457.044 -41.172C459.395 -35.5402 459.897 -28.2499 458.437 -20.9736L375.193 393.706C374.007 399.615 371.599 405.145 368.344 409.433L166.03 675.978C160.628 683.094 153.584 685.914 147.66 683.328L-14.6969 612.469C-20.6202 609.884 -24.4776 602.307 -24.7562 592.711L-35.1915 233.314C-35.3594 227.531 -34.2091 221.453 -31.9197 216.025L128.716 -164.877C131.535 -171.561 135.861 -176.744 140.702 -179.237L341.118 -282.466Z" stroke="url(#paint20_linear_6_19223)" stroke-width="4"/>
<path opacity="0.318841" d="M320.553 -304.632C327.962 -309.014 335.532 -306.421 339.516 -298.137L445.485 -77.8006C448.072 -72.4215 448.846 -65.2328 447.628 -57.8929L379.325 353.75C378.332 359.734 376.078 365.438 372.917 369.963L179.96 646.192C174.766 653.628 167.787 656.962 161.746 654.893L-3.55954 598.275C-9.60076 596.205 -13.7465 589.061 -14.3793 579.629L-37.8906 229.258C-38.2757 223.519 -37.3246 217.368 -35.1873 211.776L111.85 -172.9C114.472 -179.759 118.673 -185.243 123.484 -188.088L320.553 -304.632Z" stroke="url(#paint21_linear_6_19223)" stroke-width="4"/>
<path opacity="0.333333" d="M300.003 -325.357C307.278 -330.226 314.941 -328.289 319.24 -320.495L433.421 -113.462L433.421 -113.461C436.15 -108.512 437.217 -101.726 436.399 -94.5935L436.314 -93.9025L382.821 313.516C382.028 319.558 379.936 325.424 376.878 330.179L193.605 615.126C188.631 622.859 181.735 626.695 175.594 625.143L7.83925 582.743C1.69868 581.191 -2.72041 574.496 -3.70424 565.256L-39.9534 224.825C-40.5581 219.145 -39.812 212.939 -37.8348 207.196L95.4942 -180.044C97.9107 -187.063 101.975 -192.838 106.744 -196.03L300.003 -325.357Z" stroke="url(#paint22_linear_6_19223)" stroke-width="4"/>
<path opacity="0.347826" d="M279.523 -344.679C286.647 -350.014 294.379 -348.727 298.974 -341.442L420.889 -148.138C423.93 -143.317 425.246 -136.394 424.53 -128.987L385.669 273.057C385.081 279.142 383.159 285.157 380.214 290.131L206.914 582.825C202.171 590.835 195.379 595.156 189.157 594.12L19.4535 565.877C13.2317 564.841 8.55281 558.611 7.22245 549.591L-41.3897 219.965C-42.2158 214.363 -41.681 208.116 -39.8718 202.235L79.6828 -186.379C81.8855 -193.539 85.8014 -199.591 90.5157 -203.122L279.523 -344.679Z" stroke="url(#paint23_linear_6_19223)" stroke-width="4"/>
<path opacity="0.362319" d="M259.163 -362.631C266.119 -368.413 273.898 -367.768 278.771 -361.006L407.922 -181.812C411.179 -177.294 412.764 -170.536 412.306 -163.125L387.855 232.435C387.477 238.546 385.733 244.698 382.909 249.883L219.837 549.348C215.337 557.612 208.666 562.401 202.381 561.881L31.2292 547.691C24.9444 547.17 20.022 541.42 18.3506 532.644L-42.2174 214.638C-43.2662 209.132 -42.9472 202.862 -41.3135 196.855L64.4472 -191.964C66.4284 -199.248 70.184 -205.564 74.8319 -209.427L259.163 -362.631Z" stroke="url(#paint24_linear_6_19223)" stroke-width="4"/>
<path opacity="0.376812" d="M238.982 -379.253C245.754 -385.459 253.556 -385.446 258.689 -379.221L394.563 -214.466C398.027 -210.266 399.879 -203.695 399.683 -196.304L389.376 191.71C389.214 197.829 387.657 204.102 384.964 209.488L232.337 514.755C228.09 523.249 221.556 528.491 215.226 528.481L43.1255 528.205C36.7957 528.195 31.6456 522.935 29.6397 514.43L-42.4436 208.803C-43.7154 203.411 -43.6177 197.135 -42.167 191.018L49.8247 -196.864C51.5771 -204.253 55.1609 -210.816 59.7301 -215.003L238.982 -379.253Z" stroke="url(#paint25_linear_6_19223)" stroke-width="4"/>
<path opacity="0.391304" d="M219.022 -394.595C225.596 -401.203 233.4 -401.811 238.774 -396.136L380.843 -246.097C384.504 -242.23 386.62 -235.866 386.689 -228.516L390.221 150.937C390.278 157.047 388.915 163.426 386.361 169.002L244.362 479.1C240.377 487.803 233.997 493.477 227.64 493.973L55.0873 507.431C48.7303 507.927 43.369 503.168 41.0361 494.958L-42.093 202.418C-43.5877 197.158 -43.7158 190.895 -42.4552 184.682L35.8361 -201.152C37.3528 -208.626 40.7547 -215.421 45.2331 -219.922L219.022 -394.595Z" stroke="url(#paint26_linear_6_19223)" stroke-width="4"/>
<path opacity="0.405797" d="M199.332 -408.693C205.694 -415.68 213.477 -416.897 219.073 -411.78L366.797 -276.686C370.645 -273.166 373.021 -267.029 373.356 -259.741L390.382 110.184C390.662 116.266 389.501 122.736 387.096 128.489L255.87 442.461C252.156 451.346 245.946 457.433 239.579 458.429L67.0647 485.403C60.6982 486.398 55.1426 482.151 52.4914 474.26L-41.1852 195.454C-42.9018 190.345 -43.2586 184.113 -42.1948 177.821L22.5071 -204.883C23.7818 -212.423 26.99 -219.433 31.3661 -224.239L199.332 -408.693Z" stroke="url(#paint27_linear_6_19223)" stroke-width="4"/>
<path opacity="0.42029" d="M179.963 -421.602C186.1 -428.945 193.842 -430.756 199.639 -426.205L352.468 -306.234C356.493 -303.074 359.124 -297.185 359.728 -289.982L389.864 69.5058C390.37 75.5411 389.417 82.0827 387.17 88.0008L266.826 404.896C263.39 413.942 257.365 420.422 251.006 421.909L79.0179 462.146C72.659 463.633 66.9254 459.904 63.9652 452.355L-39.7349 187.874C-41.6716 182.935 -42.2607 176.754 -41.4 170.399L9.86398 -208.133C10.8912 -215.717 13.8966 -222.924 18.1586 -228.023L179.963 -421.602Z" stroke="url(#paint28_linear_6_19223)" stroke-width="4"/>
<path opacity="0.434783" d="M160.962 -433.388C166.863 -441.063 174.544 -443.453 180.523 -439.475L337.895 -334.753C342.086 -331.964 344.966 -326.343 345.839 -319.247L388.668 28.9468C389.402 34.9161 388.664 41.5124 386.582 47.5815L277.196 366.463C274.047 375.645 268.22 382.496 261.886 384.468L90.9024 437.676C84.5678 439.647 78.6741 436.443 75.4154 429.256L-37.7614 179.633C-39.9155 174.882 -40.7384 168.772 -40.0867 162.371L-2.06919 -210.981C-1.2944 -218.59 1.49848 -225.977 5.63526 -231.357L160.962 -433.388Z" stroke="url(#paint29_linear_6_19223)" stroke-width="4"/>
<path opacity="0.449275" d="M142.362 -444.088C148.015 -452.072 155.616 -455.025 161.757 -451.623L323.106 -362.227C327.451 -359.82 330.573 -354.485 331.715 -347.519L386.787 -11.4182C387.751 -5.53459 387.233 1.09784 385.324 7.30353L286.937 327.251C284.079 336.544 278.464 343.746 272.171 346.192L102.663 412.047C96.3697 414.493 90.3325 411.817 86.7866 405.012L-35.2976 170.721C-37.6655 166.176 -38.7247 160.157 -38.2871 153.729L-13.2856 -213.481C-12.7674 -221.093 -10.1961 -228.639 -6.19559 -234.289L142.362 -444.088Z" stroke="url(#paint30_linear_6_19223)" stroke-width="4"/>
<path opacity="0.463768" d="M124.213 -453.775C129.609 -462.045 137.112 -465.544 143.394 -462.721L308.15 -388.675C312.636 -386.659 315.992 -381.63 317.401 -374.815L384.233 -51.5489C385.428 -45.7709 385.135 -39.1216 383.408 -32.7945L296.025 287.318C293.464 296.698 288.074 304.227 281.838 307.135L114.266 385.281C108.03 388.189 101.868 386.047 98.0465 379.643L-32.3577 161.095C-34.9352 156.775 -36.2307 150.866 -36.0118 144.429L-23.7611 -215.717C-23.5028 -223.309 -21.1613 -230.995 -17.3078 -236.901L124.213 -453.775Z" stroke="url(#paint31_linear_6_19223)" stroke-width="4"/>
<path opacity="0.478261" d="M106.553 -462.505C111.682 -471.036 119.07 -475.063 125.474 -472.819L293.06 -414.099C297.674 -412.482 301.257 -407.776 302.931 -401.136L381.014 -91.3842C382.439 -85.7316 382.377 -79.0849 380.838 -72.6521L304.431 246.744C302.172 256.187 297.018 264.02 290.854 267.381L125.669 357.425C119.505 360.785 113.235 359.179 109.152 353.194L-28.967 150.739C-31.7488 146.661 -33.2808 140.884 -33.2844 134.456L-33.4837 -217.751C-33.4879 -225.302 -31.3843 -233.107 -27.6882 -239.254L106.553 -462.505Z" stroke="url(#paint32_linear_6_19223)" stroke-width="4"/>
<path opacity="0.492754" d="M89.4138 -470.341C94.2687 -479.11 101.524 -483.646 108.03 -481.981L277.871 -438.512C282.6 -437.301 286.4 -432.936 288.336 -426.49L377.133 -130.874C378.787 -125.367 378.958 -118.743 377.614 -112.221L312.125 205.602C310.172 215.083 305.264 223.198 299.188 226.998L136.827 328.521C130.751 332.32 124.39 331.25 120.058 325.7L-25.1569 139.628C-28.1369 135.81 -29.9046 130.185 -30.134 123.787L-42.4491 -219.653C-42.7176 -227.141 -40.8587 -235.045 -37.3298 -241.419L89.4138 -470.341Z" stroke="url(#paint33_linear_6_19223)" stroke-width="4"/>
<path opacity="0.507246" d="M72.8337 -477.354C77.4063 -486.337 84.5138 -491.365 91.1015 -490.276L262.622 -461.934C267.452 -461.135 271.46 -457.126 273.654 -450.897L372.605 -169.972C374.486 -164.63 374.894 -158.051 373.751 -151.457L319.088 163.961C317.442 173.456 312.792 181.831 306.818 186.057L147.704 298.608C141.73 302.834 135.297 302.299 130.731 297.198L-20.9497 127.739C-24.1206 124.197 -26.1215 118.744 -26.5791 112.396L-50.6453 -221.5C-51.1789 -228.903 -49.5714 -236.885 -46.2191 -243.471L72.8337 -477.354Z" stroke="url(#paint34_linear_6_19223)" stroke-width="4"/>
<path opacity="0.521739" d="M56.8443 -483.607C61.1278 -492.781 68.0719 -498.28 74.722 -497.764L247.351 -484.377C252.267 -483.996 256.47 -480.357 258.917 -474.366L367.441 -208.627C369.547 -203.471 370.192 -196.955 369.256 -190.306L325.298 121.902C323.962 131.388 319.578 139.999 313.721 144.637L158.261 267.74C152.405 272.377 145.917 272.377 141.131 267.738L-16.3733 115.06C-19.7274 111.809 -21.9584 106.549 -22.6458 100.269L-58.0701 -223.355C-58.8688 -230.651 -57.5174 -238.689 -54.3509 -245.47L56.8443 -483.607Z" stroke="url(#paint35_linear_6_19223)" stroke-width="4"/>
<path opacity="0.536232" d="M41.4762 -489.173C45.4647 -498.514 52.2302 -504.464 58.923 -504.516L232.092 -505.866C237.079 -505.905 241.467 -502.653 244.161 -496.92L361.658 -246.799C363.985 -241.846 364.87 -235.415 364.146 -228.73L330.74 79.4971C329.715 88.95 325.605 97.7708 319.879 102.806L168.466 235.958C162.74 240.993 156.217 241.524 151.227 237.36L151.227 237.359L-11.4544 101.571C-14.983 98.6259 -17.44 93.577 -18.358 87.3856L-64.72 -225.292C-65.7827 -232.459 -64.692 -240.529 -61.7199 -247.49L41.4762 -489.173Z" stroke="url(#paint36_linear_6_19223)" stroke-width="4"/>
<path opacity="0.550725" d="M26.7471 -494.104C30.4351 -503.589 37.0083 -509.969 43.7244 -510.583L216.872 -526.408C221.916 -526.869 226.476 -524.013 229.409 -518.557L355.265 -284.422C357.807 -279.692 358.932 -273.367 358.424 -266.663L335.391 36.8386C334.678 46.2353 330.85 55.2448 325.269 60.6622L178.277 203.337C172.695 208.754 166.152 209.811 160.975 206.131L-6.23034 87.2799C-9.92367 84.6546 -12.6023 79.8373 -13.7508 73.7543L-70.6046 -227.355C-71.9295 -234.373 -71.1036 -242.456 -68.3337 -249.58L26.7471 -494.104Z" stroke="url(#paint37_linear_6_19223)" stroke-width="4"/>
<path opacity="0.565217" d="M12.6918 -498.496C16.0747 -508.102 22.4423 -514.892 29.1624 -516.06L201.738 -546.051C206.823 -546.935 211.542 -544.489 214.707 -539.328L348.289 -321.484C351.042 -316.995 352.406 -310.795 352.117 -304.091L339.251 -6.02404C338.849 3.29385 335.309 12.4673 329.885 18.251L187.671 169.9C182.247 175.683 175.703 177.262 170.355 174.075L-0.718227 72.1497C-4.56607 69.8572 -7.46033 65.2894 -8.83849 59.3344L-75.7163 -229.639C-77.3008 -236.486 -76.7423 -244.559 -74.1822 -251.828L12.6918 -498.496Z" stroke="url(#paint38_linear_6_19223)" stroke-width="4"/>
<path opacity="0.57971" d="M-0.668799 -502.414C2.40511 -512.117 8.55361 -519.295 15.2588 -521.009L186.719 -564.818C191.83 -566.124 196.694 -564.096 200.082 -559.248L340.751 -357.936C343.707 -353.705 345.309 -347.653 345.242 -340.967L342.31 -49.0079C342.217 -39.7913 338.973 -30.4769 333.719 -24.3436L196.618 135.712C191.364 141.845 184.838 143.938 179.336 141.252L5.0502 56.1831C1.05898 54.235 -2.0439 49.9349 -3.64993 44.1272L-80.0626 -232.199C-81.9029 -238.854 -81.6149 -246.896 -79.2715 -254.293L-0.668799 -502.414Z" stroke="url(#paint39_linear_6_19223)" stroke-width="4"/>
<path opacity="0.594203" d="M-13.324 -505.923C-10.5625 -515.701 -4.64519 -523.246 2.02614 -525.494L171.841 -582.729C176.963 -584.456 181.957 -582.856 185.558 -578.337L332.663 -393.736C335.816 -389.779 337.653 -383.893 337.81 -377.244L344.556 -92.0314C344.771 -82.9381 341.827 -73.506 336.755 -67.0404L205.085 100.837C200.014 107.302 193.522 109.901 187.884 107.722L11.0387 39.3827C6.91578 37.7895 3.61126 33.7742 1.78 28.1327L-83.6597 -235.089C-85.7514 -241.534 -85.7349 -249.522 -83.6149 -257.029L-13.324 -505.923Z" stroke="url(#paint40_linear_6_19223)" stroke-width="4"/>
<path opacity="0.608696" d="M-25.2532 -509.096C-22.807 -518.926 -17.1323 -526.816 -10.5136 -529.588L157.14 -599.819C162.256 -601.963 167.366 -600.798 171.171 -596.623L324.053 -428.851C327.394 -425.185 329.463 -419.485 329.847 -412.891L345.99 -135.024C346.51 -126.075 343.871 -116.55 338.995 -109.77L213.049 65.3283C208.173 72.1082 201.733 75.2039 195.976 73.536L17.2215 21.745C12.9792 20.5158 9.48204 16.8019 7.42899 11.3448L-86.5132 -238.371C-88.851 -244.585 -89.1071 -252.498 -87.2161 -260.097L-25.2532 -509.096Z" stroke="url(#paint41_linear_6_19223)" stroke-width="4"/>
<path opacity="0.623188" d="M-36.4456 -512.005C-34.3168 -521.865 -28.897 -530.075 -22.3493 -533.359L142.642 -616.119C147.738 -618.675 152.948 -617.952 156.945 -614.136L314.944 -463.249C318.465 -459.887 320.762 -454.39 321.371 -447.869L346.61 -177.911C347.431 -169.127 345.103 -159.533 340.432 -152.457L220.486 29.2492C215.815 36.3252 209.445 39.9081 203.588 38.7537L23.5667 3.27594C19.2178 2.41882 15.5364 -0.980482 13.2658 -6.23581L-88.6401 -242.1C-91.2176 -248.066 -91.7452 -255.882 -90.0886 -263.555L-36.4456 -512.005Z" stroke="url(#paint42_linear_6_19223)" stroke-width="4"/>
<path opacity="0.637681" d="M-46.8894 -514.734C-45.0795 -524.601 -39.9251 -533.109 -33.467 -536.892L128.379 -631.679C133.437 -634.641 138.732 -634.365 142.909 -630.92L305.364 -496.912C309.054 -493.868 311.574 -488.593 312.41 -482.162L346.424 -220.636C347.542 -212.038 345.526 -202.397 341.072 -195.044L227.376 -7.35395C222.922 -0.0012449 216.64 4.05614 210.701 3.41659L30.0474 -16.0367C25.6052 -16.5151 21.7503 -19.5856 19.2671 -24.6221L-90.053 -246.344C-92.8636 -252.045 -93.6626 -259.744 -92.2451 -267.471L-46.8894 -514.734Z" stroke="url(#paint43_linear_6_19223)" stroke-width="4"/>
<path opacity="0.652174" d="M-56.5729 -517.339C-55.0829 -527.19 -50.2045 -535.974 -43.8536 -540.239L114.38 -646.52C119.386 -649.882 124.749 -650.053 129.094 -646.991L295.341 -529.801C299.191 -527.087 301.928 -522.052 302.99 -515.729L345.439 -263.115C346.849 -254.722 345.148 -245.059 340.922 -237.449L233.704 -44.4091C229.478 -36.7994 223.301 -32.2795 217.299 -32.4045L36.6366 -36.1727C32.1149 -36.267 28.0962 -38.9944 25.406 -43.7959L-90.7674 -251.141C-93.8035 -256.56 -94.8713 -264.123 -93.6969 -271.888L-56.5729 -517.339Z" stroke="url(#paint44_linear_6_19223)" stroke-width="4"/>
<path opacity="0.666667" d="M-65.5016 -519.89C-64.3318 -529.704 -59.7395 -538.737 -53.5141 -543.47L100.663 -660.681C105.6 -664.434 111.016 -665.056 115.516 -662.387L284.896 -561.891C288.894 -559.519 291.842 -554.739 293.129 -548.542L343.656 -305.281C345.353 -297.112 343.97 -287.45 339.981 -279.604L239.446 -81.852C235.457 -74.0056 229.403 -69.0384 223.356 -68.651L43.2958 -57.1197C38.7086 -56.8261 34.5379 -59.2007 31.647 -63.7518L-90.8112 -256.542C-94.0643 -261.664 -95.3988 -269.07 -94.4711 -276.852L-65.5016 -519.89Z" stroke="url(#paint45_linear_6_19223)" stroke-width="4"/>
<path opacity="0.681159" d="M-73.6699 -522.468C-72.82 -532.222 -68.5229 -541.48 -62.4401 -546.663L87.2554 -674.211C92.1086 -678.346 97.5596 -679.419 102.201 -677.151L274.059 -593.174C278.195 -591.153 281.348 -586.644 282.858 -580.589L341.089 -347.081C343.066 -339.154 342.002 -329.517 338.261 -321.455L244.59 -119.635C240.848 -111.573 234.933 -106.174 228.861 -105.278L49.9999 -78.8806C45.3615 -78.1961 41.0503 -80.2075 37.9656 -84.494L-90.2038 -262.602C-93.6652 -267.413 -95.2627 -274.642 -94.5847 -282.425L-73.6699 -522.468Z" stroke="url(#paint46_linear_6_19223)" stroke-width="4"/>
<path opacity="0.695652" d="M-81.0764 -525.134C-80.5454 -534.807 -76.5527 -544.264 -70.6299 -549.878L74.1823 -687.147C78.9363 -691.653 84.4063 -693.174 89.1757 -691.315L262.865 -623.624C267.127 -621.963 270.477 -617.74 272.207 -611.842L337.758 -388.446C340.008 -380.778 339.264 -371.189 335.779 -362.933L249.13 -157.691C245.644 -149.435 239.885 -143.62 233.806 -142.22L56.7235 -101.435C52.0482 -100.358 47.6073 -101.997 44.3362 -106.005L-88.9644 -269.362C-92.6248 -273.848 -94.4826 -280.883 -94.0565 -288.647L-81.0764 -525.134Z" stroke="url(#paint47_linear_6_19223)" stroke-width="4"/>
</g>
<defs>
<linearGradient id="paint0_linear_6_19223" x1="680.404" y1="485.387" x2="-190.177" y2="522.609" gradientUnits="userSpaceOnUse">
<stop stop-color="#747578"/>
<stop offset="1" stop-color="white"/>
</linearGradient>
<linearGradient id="paint1_linear_6_19223" x1="671.642" y1="433.681" x2="-200.732" y2="503.354" gradientUnits="userSpaceOnUse">
<stop stop-color="#747578"/>
<stop offset="1" stop-color="white"/>
</linearGradient>
<linearGradient id="paint2_linear_6_19223" x1="661.806" y1="383.043" x2="-212.323" y2="486.416" gradientUnits="userSpaceOnUse">
<stop stop-color="#747578"/>
<stop offset="1" stop-color="white"/>
</linearGradient>
<linearGradient id="paint3_linear_6_19223" x1="650.934" y1="333.553" x2="-224.741" y2="472.103" gradientUnits="userSpaceOnUse">
<stop stop-color="#747578"/>
<stop offset="1" stop-color="white"/>
</linearGradient>
<linearGradient id="paint4_linear_6_19223" x1="639.067" y1="285.244" x2="-237.729" y2="460.68" gradientUnits="userSpaceOnUse">
<stop stop-color="#747578"/>
<stop offset="1" stop-color="white"/>
</linearGradient>
<linearGradient id="paint5_linear_6_19223" x1="626.245" y1="238.213" x2="-250.977" y2="452.47" gradientUnits="userSpaceOnUse">
<stop stop-color="#747578"/>
<stop offset="1" stop-color="white"/>
</linearGradient>
<linearGradient id="paint6_linear_6_19223" x1="612.518" y1="192.486" x2="-264.108" y2="447.718" gradientUnits="userSpaceOnUse">
<stop stop-color="#747578"/>
<stop offset="1" stop-color="white"/>
</linearGradient>
<linearGradient id="paint7_linear_6_19223" x1="597.929" y1="148.125" x2="-276.684" y2="446.68" gradientUnits="userSpaceOnUse">
<stop stop-color="#747578"/>
<stop offset="1" stop-color="white"/>
</linearGradient>
<linearGradient id="paint8_linear_6_19223" x1="582.531" y1="105.167" x2="-288.178" y2="449.556" gradientUnits="userSpaceOnUse">
<stop stop-color="#747578"/>
<stop offset="1" stop-color="white"/>
</linearGradient>
<linearGradient id="paint9_linear_6_19223" x1="566.376" y1="63.6545" x2="-297.979" y2="456.493" gradientUnits="userSpaceOnUse">
<stop stop-color="#747578"/>
<stop offset="1" stop-color="white"/>
</linearGradient>
<linearGradient id="paint10_linear_6_19223" x1="549.516" y1="23.6227" x2="-305.388" y2="467.553" gradientUnits="userSpaceOnUse">
<stop stop-color="#747578"/>
<stop offset="1" stop-color="white"/>
</linearGradient>
<linearGradient id="paint11_linear_6_19223" x1="532.005" y1="-14.9054" x2="-309.614" y2="482.671" gradientUnits="userSpaceOnUse">
<stop stop-color="#747578"/>
<stop offset="1" stop-color="white"/>
</linearGradient>
<linearGradient id="paint12_linear_6_19223" x1="513.893" y1="-51.8913" x2="-309.797" y2="501.649" gradientUnits="userSpaceOnUse">
<stop stop-color="#747578"/>
<stop offset="1" stop-color="white"/>
</linearGradient>
<linearGradient id="paint13_linear_6_19223" x1="495.249" y1="-87.3399" x2="-305.004" y2="524.048" gradientUnits="userSpaceOnUse">
<stop stop-color="#747578"/>
<stop offset="1" stop-color="white"/>
</linearGradient>
<linearGradient id="paint14_linear_6_19223" x1="476.12" y1="-121.226" x2="-294.315" y2="549.228" gradientUnits="userSpaceOnUse">
<stop stop-color="#747578"/>
<stop offset="1" stop-color="white"/>
</linearGradient>
<linearGradient id="paint15_linear_6_19223" x1="456.569" y1="-153.546" x2="-276.844" y2="576.25" gradientUnits="userSpaceOnUse">
<stop stop-color="#747578"/>
<stop offset="1" stop-color="white"/>
</linearGradient>
<linearGradient id="paint16_linear_6_19223" x1="436.652" y1="-184.284" x2="-251.858" y2="603.899" gradientUnits="userSpaceOnUse">
<stop stop-color="#747578"/>
<stop offset="1" stop-color="white"/>
</linearGradient>
<linearGradient id="paint17_linear_6_19223" x1="416.43" y1="-213.462" x2="-218.858" y2="630.641" gradientUnits="userSpaceOnUse">
<stop stop-color="#747578"/>
<stop offset="1" stop-color="white"/>
</linearGradient>
<linearGradient id="paint18_linear_6_19223" x1="395.958" y1="-241.084" x2="-177.712" y2="654.728" gradientUnits="userSpaceOnUse">
<stop stop-color="#747578"/>
<stop offset="1" stop-color="white"/>
</linearGradient>
<linearGradient id="paint19_linear_6_19223" x1="375.299" y1="-267.155" x2="-128.745" y2="674.28" gradientUnits="userSpaceOnUse">
<stop stop-color="#747578"/>
<stop offset="1" stop-color="white"/>
</linearGradient>
<linearGradient id="paint20_linear_6_19223" x1="354.507" y1="-291.693" x2="-72.8219" y2="687.429" gradientUnits="userSpaceOnUse">
<stop stop-color="#747578"/>
<stop offset="1" stop-color="white"/>
</linearGradient>
<linearGradient id="paint21_linear_6_19223" x1="333.642" y1="-314.725" x2="-11.3427" y2="692.505" gradientUnits="userSpaceOnUse">
<stop stop-color="#747578"/>
<stop offset="1" stop-color="white"/>
</linearGradient>
<linearGradient id="paint22_linear_6_19223" x1="312.759" y1="-336.274" x2="53.815" y2="688.239" gradientUnits="userSpaceOnUse">
<stop stop-color="#747578"/>
<stop offset="1" stop-color="white"/>
</linearGradient>
<linearGradient id="paint23_linear_6_19223" x1="291.917" y1="-356.377" x2="120.448" y2="673.909" gradientUnits="userSpaceOnUse">
<stop stop-color="#747578"/>
<stop offset="1" stop-color="white"/>
</linearGradient>
<linearGradient id="paint24_linear_6_19223" x1="271.166" y1="-375.065" x2="186.23" y2="649.447" gradientUnits="userSpaceOnUse">
<stop stop-color="#747578"/>
<stop offset="1" stop-color="white"/>
</linearGradient>
<linearGradient id="paint25_linear_6_19223" x1="250.568" y1="-392.378" x2="248.953" y2="615.423" gradientUnits="userSpaceOnUse">
<stop stop-color="#747578"/>
<stop offset="1" stop-color="white"/>
</linearGradient>
<linearGradient id="paint26_linear_6_19223" x1="230.168" y1="-408.363" x2="306.703" y2="572.956" gradientUnits="userSpaceOnUse">
<stop stop-color="#747578"/>
<stop offset="1" stop-color="white"/>
</linearGradient>
<linearGradient id="paint27_linear_6_19223" x1="210.015" y1="-423.059" x2="358.029" y2="523.578" gradientUnits="userSpaceOnUse">
<stop stop-color="#747578"/>
<stop offset="1" stop-color="white"/>
</linearGradient>
<linearGradient id="paint28_linear_6_19223" x1="190.162" y1="-436.517" x2="402.009" y2="469.016" gradientUnits="userSpaceOnUse">
<stop stop-color="#747578"/>
<stop offset="1" stop-color="white"/>
</linearGradient>
<linearGradient id="paint29_linear_6_19223" x1="170.66" y1="-448.805" x2="438.228" y2="411.019" gradientUnits="userSpaceOnUse">
<stop stop-color="#747578"/>
<stop offset="1" stop-color="white"/>
</linearGradient>
<linearGradient id="paint30_linear_6_19223" x1="151.542" y1="-459.96" x2="466.709" y2="351.254" gradientUnits="userSpaceOnUse">
<stop stop-color="#747578"/>
<stop offset="1" stop-color="white"/>
</linearGradient>
<linearGradient id="paint31_linear_6_19223" x1="132.86" y1="-470.055" x2="487.84" y2="291.144" gradientUnits="userSpaceOnUse">
<stop stop-color="#747578"/>
<stop offset="1" stop-color="white"/>
</linearGradient>
<linearGradient id="paint32_linear_6_19223" x1="114.656" y1="-479.144" x2="502.242" y2="231.874" gradientUnits="userSpaceOnUse">
<stop stop-color="#747578"/>
<stop offset="1" stop-color="white"/>
</linearGradient>
<linearGradient id="paint33_linear_6_19223" x1="96.9604" y1="-487.294" x2="510.676" y2="174.342" gradientUnits="userSpaceOnUse">
<stop stop-color="#747578"/>
<stop offset="1" stop-color="white"/>
</linearGradient>
<linearGradient id="paint34_linear_6_19223" x1="79.815" y1="-494.575" x2="513.969" y2="119.189" gradientUnits="userSpaceOnUse">
<stop stop-color="#747578"/>
<stop offset="1" stop-color="white"/>
</linearGradient>
<linearGradient id="paint35_linear_6_19223" x1="63.2517" y1="-501.05" x2="512.946" y2="66.8431" gradientUnits="userSpaceOnUse">
<stop stop-color="#747578"/>
<stop offset="1" stop-color="white"/>
</linearGradient>
<linearGradient id="paint36_linear_6_19223" x1="47.3029" y1="-506.793" x2="508.392" y2="17.5322" gradientUnits="userSpaceOnUse">
<stop stop-color="#747578"/>
<stop offset="1" stop-color="white"/>
</linearGradient>
<linearGradient id="paint37_linear_6_19223" x1="31.9881" y1="-511.856" x2="501.015" y2="-28.6353" gradientUnits="userSpaceOnUse">
<stop stop-color="#747578"/>
<stop offset="1" stop-color="white"/>
</linearGradient>
<linearGradient id="paint38_linear_6_19223" x1="17.3436" y1="-516.338" x2="491.466" y2="-71.7101" gradientUnits="userSpaceOnUse">
<stop stop-color="#747578"/>
<stop offset="1" stop-color="white"/>
</linearGradient>
<linearGradient id="paint39_linear_6_19223" x1="3.39057" y1="-520.302" x2="480.302" y2="-111.788" gradientUnits="userSpaceOnUse">
<stop stop-color="#747578"/>
<stop offset="1" stop-color="white"/>
</linearGradient>
<linearGradient id="paint40_linear_6_19223" x1="-9.85805" y1="-523.814" x2="467.994" y2="-149.023" gradientUnits="userSpaceOnUse">
<stop stop-color="#747578"/>
<stop offset="1" stop-color="white"/>
</linearGradient>
<linearGradient id="paint41_linear_6_19223" x1="-22.3807" y1="-526.949" x2="454.952" y2="-183.613" gradientUnits="userSpaceOnUse">
<stop stop-color="#747578"/>
<stop offset="1" stop-color="white"/>
</linearGradient>
<linearGradient id="paint42_linear_6_19223" x1="-34.1661" y1="-529.778" x2="441.514" y2="-215.777" gradientUnits="userSpaceOnUse">
<stop stop-color="#747578"/>
<stop offset="1" stop-color="white"/>
</linearGradient>
<linearGradient id="paint43_linear_6_19223" x1="-45.2005" y1="-532.387" x2="427.964" y2="-245.76" gradientUnits="userSpaceOnUse">
<stop stop-color="#747578"/>
<stop offset="1" stop-color="white"/>
</linearGradient>
<linearGradient id="paint44_linear_6_19223" x1="-55.4717" y1="-534.832" x2="414.536" y2="-273.782" gradientUnits="userSpaceOnUse">
<stop stop-color="#747578"/>
<stop offset="1" stop-color="white"/>
</linearGradient>
<linearGradient id="paint45_linear_6_19223" x1="-64.9838" y1="-537.183" x2="401.408" y2="-300.075" gradientUnits="userSpaceOnUse">
<stop stop-color="#747578"/>
<stop offset="1" stop-color="white"/>
</linearGradient>
<linearGradient id="paint46_linear_6_19223" x1="-73.7302" y1="-539.523" x2="388.734" y2="-324.879" gradientUnits="userSpaceOnUse">
<stop stop-color="#747578"/>
<stop offset="1" stop-color="white"/>
</linearGradient>
<linearGradient id="paint47_linear_6_19223" x1="-81.7075" y1="-541.913" x2="376.636" y2="-348.409" gradientUnits="userSpaceOnUse">
<stop stop-color="#747578"/>
<stop offset="1" stop-color="white"/>
</linearGradient>
</defs>
</svg>
