<svg width="954" height="1717" viewBox="0 0 954 1717" fill="none" xmlns="http://www.w3.org/2000/svg">
<g opacity="0.24">
<path opacity="0.0144928" d="M293.86 1248.3C287.403 1241.66 284.736 1228.71 287.359 1216.74L363.167 870.699C364.681 863.793 367.801 857.989 371.86 854.53L668.277 601.961C671.441 599.265 675.002 598.144 678.485 598.743L962.762 647.709C969.243 648.825 974.613 655.729 976.634 665.544L1036.95 958.44C1038.98 968.254 1037.3 979.295 1032.63 986.96L827.68 1323.19C825.169 1327.31 821.964 1330.16 818.492 1331.36L493.223 1443.83C488.768 1445.37 484.189 1444.09 480.464 1440.26L293.86 1248.3Z" stroke="url(#paint0_linear_6_19152)" stroke-width="4"/>
<path opacity="0.0289855" d="M311.103 1296.87C304.425 1290.78 301.322 1278.1 303.537 1265.97L367.113 917.613C368.393 910.603 371.32 904.561 375.267 900.781L661.03 627.159C664.108 624.211 667.638 622.803 671.148 623.121L954.994 648.819C961.514 649.409 967.117 655.852 969.47 665.464L1039.2 950.335C1041.56 959.947 1040.26 971.081 1035.84 979.099L843.731 1328.14C841.356 1332.46 838.241 1335.56 834.804 1337.04L515.673 1474.36C511.265 1476.25 506.637 1475.34 502.779 1471.82L311.103 1296.87Z" stroke="url(#paint1_linear_6_19152)" stroke-width="4"/>
<path opacity="0.0434783" d="M329.197 1344.19C322.317 1338.66 318.789 1326.3 320.589 1314.04L371.918 964.443C372.96 957.348 375.685 951.084 379.511 946.993L653.971 653.503C656.956 650.311 660.447 648.619 663.975 648.653L946.621 651.424C953.163 651.488 958.985 657.452 961.663 666.833L1040.5 942.989C1043.18 952.37 1042.25 963.563 1038.11 971.909L859.201 1332.5C856.967 1337 853.951 1340.35 850.555 1342.11L538.359 1503.41C534.008 1505.66 529.342 1505.13 525.361 1501.93L329.197 1344.19Z" stroke="url(#paint2_linear_6_19152)" stroke-width="4"/>
<path opacity="0.057971" d="M348.09 1390.2C341.03 1385.24 337.087 1373.24 338.467 1360.89L377.572 1011.11C378.372 1003.95 380.89 997.477 384.584 993.086L647.137 680.955C650.022 677.526 653.465 675.554 657.004 675.305L937.7 655.549C944.247 655.089 950.269 660.555 953.265 669.676L1040.87 936.463C1043.87 945.584 1043.33 956.8 1039.47 965.451L874.069 1336.31C871.984 1340.98 869.073 1344.57 865.727 1346.6L561.227 1530.99C556.943 1533.59 552.25 1533.43 548.155 1530.56L348.09 1390.2Z" stroke="url(#paint3_linear_6_19152)" stroke-width="4"/>
<path opacity="0.0724638" d="M367.738 1434.86C360.517 1430.49 356.173 1418.88 357.13 1406.49L384.069 1057.56C384.625 1050.36 386.928 1043.7 390.481 1039.02L640.571 709.515C643.348 705.856 646.737 703.609 650.278 703.076L928.291 661.253C934.825 660.27 941.033 665.223 944.337 674.058L1040.37 930.851C1043.67 939.686 1043.51 950.893 1039.94 959.821L888.327 1339.65C886.395 1344.48 883.597 1348.31 880.309 1350.6L584.229 1557.13C580.022 1560.06 575.313 1560.28 571.114 1557.75L367.738 1434.86Z" stroke="url(#paint4_linear_6_19152)" stroke-width="4"/>
<path opacity="0.0869565" d="M388.082 1478.09C380.722 1474.33 375.992 1463.14 376.523 1450.75L391.394 1103.71C391.703 1096.48 393.784 1089.65 397.187 1084.69L634.307 739.113C636.969 735.233 640.295 732.713 643.832 731.897L918.449 668.521C924.955 667.02 931.329 671.447 934.931 679.968L1039.01 926.185C1042.61 934.706 1042.83 945.869 1039.57 955.048L901.956 1342.54C900.184 1347.53 897.504 1351.58 894.281 1354.13L607.309 1581.77C603.19 1585.04 598.477 1585.64 594.184 1583.45L388.082 1478.09Z" stroke="url(#paint5_linear_6_19152)" stroke-width="4"/>
<path opacity="0.101449" d="M409.069 1519.88C401.591 1516.73 396.493 1506 396.598 1493.65L399.529 1149.5C399.591 1142.27 401.444 1135.29 404.689 1130.06L628.379 769.741C630.921 765.647 634.176 762.86 637.7 761.761L908.233 677.401C914.691 675.387 921.214 679.274 925.103 687.456L1036.84 922.547C1040.73 930.729 1041.32 941.814 1038.38 951.217L914.945 1345.06C913.337 1350.2 910.784 1354.46 907.633 1357.27L630.414 1604.97C626.393 1608.57 621.686 1609.54 617.309 1607.7L409.069 1519.88Z" stroke="url(#paint6_linear_6_19152)" stroke-width="4"/>
<path opacity="0.115942" d="M430.645 1560.19C423.073 1557.65 417.624 1547.42 417.305 1535.14L408.462 1194.88C408.275 1187.66 409.896 1180.54 412.973 1175.06L622.824 801.348C625.239 797.048 628.416 793.999 631.919 792.618L897.704 687.892C904.099 685.372 910.751 688.711 914.914 696.529L1033.91 919.985C1038.07 927.803 1039.04 938.775 1036.42 948.373L927.287 1347.27C925.849 1352.53 923.428 1357 920.358 1360.07L653.496 1626.73C649.583 1630.64 644.893 1631.99 640.444 1630.5L430.645 1560.19Z" stroke="url(#paint7_linear_6_19152)" stroke-width="4"/>
<path opacity="0.130435" d="M452.752 1598.98C445.108 1597.06 439.328 1587.35 438.588 1575.19L418.17 1239.77C417.733 1232.59 419.116 1225.35 422.018 1219.63L617.673 833.896C619.954 829.4 623.046 826.094 626.521 824.433L886.918 700.009C893.233 696.992 899.995 699.77 904.419 707.201L1030.25 918.552C1034.68 925.983 1036.02 936.81 1033.72 946.575L938.972 1349.22C937.707 1354.6 935.426 1359.26 932.442 1362.58L676.5 1647.06C672.704 1651.28 668.044 1653.01 663.532 1651.88L452.752 1598.98Z" stroke="url(#paint8_linear_6_19152)" stroke-width="4"/>
<path opacity="0.144928" d="M475.331 1636.23C467.637 1634.93 461.548 1625.77 460.39 1613.76L428.628 1284.13C427.942 1277 429.083 1269.67 431.802 1263.72L612.955 867.347C615.095 862.663 618.094 859.104 621.533 857.165L875.932 713.756C882.15 710.251 889.002 712.464 893.673 719.487L1025.91 918.297C1030.58 925.321 1032.29 935.97 1030.32 945.872L949.99 1350.97C948.904 1356.45 946.768 1361.3 943.879 1364.86L699.375 1665.99C695.705 1670.51 691.084 1672.62 686.521 1671.85L475.331 1636.23Z" stroke="url(#paint9_linear_6_19152)" stroke-width="4"/>
<path opacity="0.15942" d="M498.329 1671.91C490.608 1671.23 484.232 1662.65 482.664 1650.84L439.82 1327.88C438.885 1320.83 439.78 1313.42 442.308 1307.25L608.703 901.641C610.698 896.779 613.596 892.974 616.992 890.758L864.81 729.12C870.915 725.137 877.837 726.779 882.74 733.374L1020.94 919.254C1025.84 925.848 1027.9 936.289 1026.28 946.298L960.345 1352.57C959.441 1358.14 957.456 1363.17 954.668 1366.97L722.076 1683.54C718.541 1688.35 713.973 1690.83 709.369 1690.42L498.329 1671.91Z" stroke="url(#paint10_linear_6_19152)" stroke-width="4"/>
<path opacity="0.173913" d="M521.687 1706.01C513.962 1705.95 507.323 1697.98 505.353 1686.39L451.718 1370.98C450.537 1364.04 451.182 1356.56 453.512 1350.2L604.946 936.741C606.788 931.711 609.578 927.666 612.923 925.177L853.609 746.101C859.586 741.654 866.557 742.722 871.676 748.87L1015.38 921.467C1020.5 927.615 1022.91 937.815 1021.63 947.902L970.031 1354.08C969.314 1359.73 967.487 1364.93 964.807 1368.95L744.553 1699.75C741.164 1704.84 736.658 1707.68 732.024 1707.65L521.687 1706.01Z" stroke="url(#paint11_linear_6_19152)" stroke-width="4"/>
<path opacity="0.188406" d="M545.35 1738.52C537.643 1739.07 530.764 1731.71 528.402 1720.4L464.298 1413.37C462.872 1406.54 463.266 1399.03 465.391 1392.48L601.711 972.581C603.395 967.392 606.071 963.114 609.357 960.355L842.39 764.672C848.223 759.774 855.222 760.268 860.54 765.953L1009.28 924.955C1014.6 930.64 1017.35 940.569 1016.42 950.703L979.053 1355.55C978.526 1361.26 976.862 1366.62 974.298 1370.86L766.763 1714.64C763.527 1720 759.095 1723.2 754.443 1723.53L545.35 1738.52Z" stroke="url(#paint12_linear_6_19152)" stroke-width="4"/>
<path opacity="0.202899" d="M569.252 1769.44C561.586 1770.6 554.493 1763.88 551.748 1752.87L477.525 1455.03C475.857 1448.34 475.996 1440.8 477.91 1434.08L599.015 1009.13C600.536 1003.8 603.089 999.292 606.308 996.266L831.201 784.838C836.875 779.503 843.882 779.424 849.382 784.631L1002.69 929.77C1008.19 934.976 1011.27 944.606 1010.69 954.756L987.404 1357.05C987.071 1362.81 985.575 1368.31 983.133 1372.78L788.651 1728.26C785.577 1733.88 781.23 1737.43 776.572 1738.14L569.252 1769.44Z" stroke="url(#paint13_linear_6_19152)" stroke-width="4"/>
<path opacity="0.217391" d="M593.343 1798.77C585.74 1800.52 578.458 1794.46 575.344 1783.78L491.375 1495.88C489.47 1489.35 489.352 1481.81 491.048 1474.94L596.891 1046.33C598.242 1040.86 600.665 1036.13 603.809 1032.84L820.107 806.563C825.608 800.808 832.603 800.156 838.267 804.872L995.663 935.919C1001.33 940.635 1004.72 949.94 1004.49 960.076L995.096 1358.63C994.959 1364.42 993.639 1370.06 991.326 1374.73L810.182 1740.65C807.279 1746.52 803.028 1750.42 798.375 1751.49L593.343 1798.77Z" stroke="url(#paint14_linear_6_19152)" stroke-width="4"/>
<path opacity="0.231884" d="M617.563 1826.51C610.043 1828.85 602.598 1823.45 599.128 1813.14L505.814 1535.91C503.675 1529.55 503.3 1522.03 504.772 1515.03L595.351 1084.12C596.527 1078.52 598.813 1073.59 601.875 1070.04L809.158 829.824C814.472 823.665 821.434 822.448 827.244 826.661L988.239 943.429C994.049 947.643 997.753 956.596 997.863 966.689L1002.13 1360.34C1002.19 1366.15 1001.05 1371.92 998.875 1376.79L831.308 1751.86C828.584 1757.96 824.441 1762.2 819.805 1763.64L617.563 1826.51Z" stroke="url(#paint15_linear_6_19152)" stroke-width="4"/>
<path opacity="0.246377" d="M641.856 1852.66C634.44 1855.57 626.857 1850.84 623.046 1840.93L520.811 1575.05C518.443 1568.89 517.809 1561.41 519.053 1554.28L594.417 1122.43C595.413 1116.72 597.555 1111.58 600.526 1107.78L798.41 854.574C803.524 848.03 810.433 846.254 816.37 849.957L980.473 952.3C986.411 956.003 990.408 964.58 990.864 974.598L1008.51 1362.22C1008.78 1368.04 1007.82 1373.92 1005.79 1378.98L851.992 1761.92C849.455 1768.24 845.43 1772.82 840.822 1774.62L641.856 1852.66Z" stroke="url(#paint16_linear_6_19152)" stroke-width="4"/>
<path opacity="0.26087" d="M666.16 1877.27C658.869 1880.74 651.174 1876.69 647.039 1867.2L536.326 1613.29C533.735 1607.35 532.843 1599.93 533.851 1592.7L594.1 1161.23C594.912 1155.42 596.902 1150.09 599.775 1146.04L787.909 880.804C792.811 873.893 799.647 871.567 805.693 874.751L972.411 962.566C978.457 965.751 982.732 973.93 983.532 983.844L1014.25 1364.36C1014.72 1370.17 1013.96 1376.14 1012.07 1381.39L872.188 1770.91C869.846 1777.44 865.951 1782.34 861.382 1784.51L666.16 1877.27Z" stroke="url(#paint17_linear_6_19152)" stroke-width="4"/>
<path opacity="0.275362" d="M690.433 1900.34C683.285 1904.34 675.505 1900.97 671.062 1891.94L552.336 1650.59C549.529 1644.88 548.379 1637.54 549.149 1630.24L594.427 1200.44C595.048 1194.55 596.88 1189.04 599.646 1184.75L777.719 908.453C782.396 901.195 789.14 898.329 795.276 900.99L964.114 974.215C970.25 976.876 974.787 984.636 975.929 994.417L1019.37 1366.78C1020.04 1372.57 1019.48 1378.62 1017.75 1384.04L891.873 1778.87C889.732 1785.59 885.977 1790.8 881.46 1793.33L690.433 1900.34Z" stroke="url(#paint18_linear_6_19152)" stroke-width="4"/>
<path opacity="0.289855" d="M714.611 1921.88C707.624 1926.41 699.784 1923.71 695.051 1915.15L568.797 1686.92C565.78 1681.46 564.375 1674.22 564.901 1666.85L595.4 1240.01C595.827 1234.05 597.494 1228.37 600.145 1223.84L767.878 937.477C772.32 929.894 778.953 926.5 785.16 928.634L955.621 987.248C961.828 989.383 966.614 996.703 968.091 1006.32L1023.87 1369.54C1024.75 1375.28 1024.38 1381.41 1022.82 1386.98L911.002 1785.86C909.07 1792.75 905.466 1798.27 901.011 1801.15L714.611 1921.88Z" stroke="url(#paint19_linear_6_19152)" stroke-width="4"/>
<path opacity="0.304348" d="M738.648 1941.93C731.839 1946.96 723.964 1944.94 718.96 1936.88L585.678 1722.25C582.458 1717.06 580.798 1709.95 581.078 1702.53L597.034 1279.88C597.261 1273.86 598.756 1268.01 601.284 1263.26L758.438 967.828C762.634 959.94 769.138 956.032 775.398 957.638L946.987 1001.66C953.247 1003.27 958.265 1010.13 960.072 1019.56L1027.77 1372.68C1028.85 1378.36 1028.69 1384.54 1027.3 1390.27L929.547 1791.93C927.832 1798.98 924.389 1804.79 920.008 1808.02L738.648 1941.93Z" stroke="url(#paint20_linear_6_19152)" stroke-width="4"/>
<path opacity="0.318841" d="M762.489 1960.53C755.875 1966.04 747.988 1964.69 742.732 1957.15L602.938 1756.56C599.525 1751.66 597.613 1744.69 597.643 1737.25L599.335 1319.98C599.36 1313.92 600.675 1307.92 603.073 1302.95L749.442 999.456C753.383 991.286 759.74 986.88 766.034 987.958L938.259 1017.45C944.553 1018.53 949.787 1024.92 951.918 1034.13L1031.08 1376.25C1032.37 1381.86 1032.42 1388.08 1031.2 1393.94L947.477 1797.16C945.984 1804.35 942.713 1810.44 938.418 1814.01L762.489 1960.53Z" stroke="url(#paint21_linear_6_19152)" stroke-width="4"/>
<path opacity="0.333333" d="M786.085 1977.71C779.68 1983.67 771.806 1982.99 766.318 1975.98L620.541 1789.84L620.541 1789.84C617.057 1785.39 614.921 1778.86 614.589 1771.69L614.562 1770.99L602.309 1360.26C602.127 1354.17 603.256 1348.04 605.515 1342.86L740.934 1032.3C744.609 1023.87 750.804 1018.99 757.113 1019.54L929.487 1034.6C935.796 1035.16 941.228 1041.06 943.674 1050.02L1033.82 1380.3C1035.33 1385.81 1035.58 1392.05 1034.54 1398.04L964.764 1801.6C963.5 1808.92 960.41 1815.27 956.212 1819.18L786.085 1977.71Z" stroke="url(#paint22_linear_6_19152)" stroke-width="4"/>
<path opacity="0.347826" d="M809.387 1993.51C803.207 1999.92 795.368 1999.88 789.668 1993.42L638.45 1822.07C634.678 1817.79 632.273 1811.17 631.797 1803.74L605.958 1400.65C605.567 1394.55 606.504 1388.31 608.617 1382.93L732.953 1066.31C736.356 1057.65 742.372 1052.3 748.679 1052.33L920.715 1053.11C927.022 1053.14 932.636 1058.54 935.39 1067.23L1036.02 1384.87C1037.73 1390.27 1038.19 1396.52 1037.35 1402.61L981.384 1805.33C980.353 1812.75 977.454 1819.35 973.364 1823.59L809.387 1993.51Z" stroke="url(#paint23_linear_6_19152)" stroke-width="4"/>
<path opacity="0.362319" d="M832.353 2007.98C826.409 2014.8 818.628 2015.4 812.737 2009.51L656.628 1853.24C652.692 1849.3 650.048 1842.88 649.316 1835.49L610.288 1441.1C609.685 1435.01 610.424 1428.66 612.384 1423.09L725.542 1101.42C728.665 1092.55 734.486 1086.76 740.773 1086.27L911.994 1072.94C918.282 1072.45 924.059 1077.34 927.111 1085.74L1037.68 1389.99C1039.6 1395.26 1040.28 1401.5 1039.63 1407.69L997.317 1808.41C996.524 1815.92 993.825 1822.75 989.854 1827.31L832.353 2007.98Z" stroke="url(#paint24_linear_6_19152)" stroke-width="4"/>
<path opacity="0.376812" d="M854.929 2021.17C849.235 2028.37 841.531 2029.61 835.469 2024.28L675.03 1883.34C670.94 1879.75 668.062 1873.56 667.076 1866.23L615.289 1481.55C614.472 1475.48 615.007 1469.04 616.806 1463.29L718.727 1137.57C721.563 1128.51 727.176 1122.29 733.427 1121.29L903.362 1094.08C909.613 1093.08 915.537 1097.45 918.875 1105.52L1038.84 1395.72C1040.95 1400.84 1041.86 1407.05 1041.4 1413.32L1012.53 1810.91C1011.98 1818.49 1009.49 1825.54 1005.65 1830.4L854.929 2021.17Z" stroke="url(#paint25_linear_6_19152)" stroke-width="4"/>
<path opacity="0.391304" d="M877.082 2033.13C871.648 2040.7 864.042 2042.54 857.83 2037.8L693.625 1912.37C689.394 1909.14 686.288 1903.2 685.047 1895.95L620.966 1521.93C619.934 1515.91 620.261 1509.39 621.891 1503.48L712.549 1174.69C715.093 1165.46 720.485 1158.84 726.681 1157.34L894.871 1116.5C901.067 1114.99 907.12 1118.83 910.734 1126.56L1039.51 1402.08C1041.83 1407.03 1042.95 1413.19 1042.7 1419.53L1027.03 1812.91C1026.72 1820.53 1024.45 1827.78 1020.75 1832.94L877.082 2033.13Z" stroke="url(#paint26_linear_6_19152)" stroke-width="4"/>
<path opacity="0.405797" d="M898.771 2043.9C893.606 2051.81 886.118 2054.25 879.777 2050.1L712.376 1940.33C708.014 1937.47 704.69 1931.79 703.195 1924.65L627.314 1562.19C626.067 1556.23 626.18 1549.66 627.635 1543.59L707.04 1212.69C709.288 1203.33 714.446 1196.33 720.572 1194.33L886.565 1140.15C892.691 1138.15 898.854 1141.46 902.731 1148.83L1039.73 1409.1C1042.24 1413.86 1043.59 1419.96 1043.54 1426.34L1040.78 1814.47C1040.73 1822.11 1038.68 1829.55 1035.13 1834.99L898.771 2043.9Z" stroke="url(#paint27_linear_6_19152)" stroke-width="4"/>
<path opacity="0.42029" d="M919.954 2053.55C915.067 2061.78 907.714 2064.8 901.265 2061.23L731.24 1967.21C726.761 1964.73 723.224 1959.34 721.478 1952.32L634.323 1602.26C632.859 1596.38 632.755 1589.77 634.029 1583.57L702.224 1251.53C704.171 1242.05 709.084 1234.69 715.124 1232.21L878.48 1165.02C884.519 1162.54 890.775 1165.3 894.903 1172.28L1039.51 1416.81C1042.21 1421.38 1043.78 1427.38 1043.94 1433.8L1053.78 1815.66C1053.98 1823.31 1052.16 1830.9 1048.77 1836.62L919.954 2053.55Z" stroke="url(#paint28_linear_6_19152)" stroke-width="4"/>
<path opacity="0.434783" d="M940.593 2062.15C935.993 2070.67 928.792 2074.25 922.255 2071.28L750.18 1993.03C745.597 1990.95 741.856 1985.86 739.861 1978.99L641.98 1642.11C640.302 1636.33 639.977 1629.7 641.063 1623.38L698.124 1291.12C699.767 1281.56 704.424 1273.86 710.363 1270.9L870.655 1191.07C876.594 1188.12 882.923 1190.34 887.288 1196.91L1038.87 1425.26C1041.76 1429.61 1043.55 1435.51 1043.93 1441.93L1066.02 1816.56C1066.47 1824.2 1064.89 1831.93 1061.66 1837.91L940.593 2062.15Z" stroke="url(#paint29_linear_6_19152)" stroke-width="4"/>
<path opacity="0.449275" d="M960.663 2069.74C956.357 2078.53 949.325 2082.65 942.72 2080.28L769.165 2017.79C764.492 2016.11 760.558 2011.34 758.319 2004.65L650.282 1681.66C648.391 1676 647.844 1669.37 648.737 1662.94L694.77 1331.39C696.107 1321.76 700.499 1313.75 706.322 1310.33L863.138 1218.25C868.96 1214.83 875.347 1216.51 879.934 1222.66L1037.87 1434.45C1040.93 1438.56 1042.94 1444.33 1043.53 1450.75L1077.49 1817.24C1078.19 1824.84 1076.86 1832.7 1073.81 1838.91L960.663 2069.74Z" stroke="url(#paint30_linear_6_19152)" stroke-width="4"/>
<path opacity="0.463768" d="M980.126 2076.41C976.12 2085.43 969.272 2090.08 962.619 2088.3L788.154 2041.51C783.403 2040.24 779.287 2035.81 776.808 2029.31L659.212 1720.86C657.11 1715.35 656.337 1708.74 657.031 1702.22L692.176 1372.26C693.205 1362.59 697.324 1354.3 703.016 1350.43L855.958 1246.53C861.65 1242.66 868.075 1243.79 872.87 1249.5L1036.5 1444.42C1039.73 1448.28 1041.96 1453.9 1042.77 1460.29L1088.19 1817.77C1089.14 1825.31 1088.06 1833.27 1085.2 1839.72L980.126 2076.41Z" stroke="url(#paint31_linear_6_19152)" stroke-width="4"/>
<path opacity="0.478261" d="M998.954 2082.2C995.252 2091.44 988.602 2096.6 981.922 2095.41L807.11 2064.2C802.297 2063.34 798.008 2059.27 795.295 2052.98L668.751 1759.67C666.441 1754.32 665.442 1747.75 665.934 1741.15L690.356 1413.65C691.078 1403.97 694.915 1395.42 700.463 1391.12L849.15 1275.85C854.698 1271.55 861.144 1272.13 866.131 1277.39L1034.81 1455.19C1038.2 1458.77 1040.64 1464.23 1041.67 1470.57L1098.11 1818.23C1099.32 1825.68 1098.49 1833.72 1095.82 1840.38L998.954 2082.2Z" stroke="url(#paint32_linear_6_19152)" stroke-width="4"/>
<path opacity="0.492754" d="M1017.12 2087.2C1013.73 2096.63 1007.29 2102.27 1000.61 2101.67L826.002 2085.88C821.141 2085.44 816.692 2081.73 813.751 2075.68L678.888 1798.04C676.376 1792.86 675.149 1786.35 675.434 1779.7L689.33 1455.5C689.745 1445.83 693.294 1437.03 698.686 1432.31L842.751 1306.16C848.142 1301.44 854.592 1301.48 859.755 1306.27L1032.82 1466.76C1036.37 1470.06 1039.01 1475.33 1040.26 1481.61L1107.26 1818.67C1108.72 1826.02 1108.15 1834.12 1105.69 1840.98L1017.12 2087.2Z" stroke="url(#paint33_linear_6_19152)" stroke-width="4"/>
<path opacity="0.507246" d="M1034.61 2091.48C1031.53 2101.08 1025.32 2107.17 1018.64 2107.15L844.795 2106.56C839.9 2106.55 835.303 2103.23 832.143 2097.43L689.601 1835.91C686.891 1830.94 685.438 1824.51 685.513 1817.82L689.107 1497.72C689.215 1488.08 692.468 1479.07 697.69 1473.94L836.79 1337.43C842.012 1332.3 848.448 1331.8 853.77 1336.11L1030.56 1479.17C1034.26 1482.16 1037.11 1487.23 1038.57 1493.42L1115.65 1819.19C1117.36 1826.41 1117.05 1834.55 1114.79 1841.58L1034.61 2091.48Z" stroke="url(#paint34_linear_6_19152)" stroke-width="4"/>
<path opacity="0.521739" d="M1051.39 2095.1C1048.63 2104.84 1042.65 2111.37 1036.01 2111.93L863.455 2126.28C858.541 2126.69 853.811 2123.77 850.439 2118.24L700.872 1873.24C697.969 1868.49 696.292 1862.16 696.154 1855.45L689.693 1540.23C689.496 1530.65 692.45 1521.45 697.491 1515.93L831.297 1369.59C836.338 1364.07 842.743 1363.04 848.208 1366.85L1028.07 1492.42C1031.9 1495.09 1034.94 1499.93 1036.63 1506.02L1123.27 1819.83C1125.23 1826.91 1125.18 1835.06 1123.13 1842.26L1051.39 2095.1Z" stroke="url(#paint35_linear_6_19152)" stroke-width="4"/>
<path opacity="0.536232" d="M1067.45 2098.14C1065.01 2108 1059.28 2114.95 1052.68 2116.07L881.949 2145.06C877.032 2145.89 872.181 2143.38 868.607 2138.15L712.675 1910C709.588 1905.48 707.687 1899.28 707.335 1892.56L691.092 1582.96C690.594 1573.46 693.243 1564.1 698.091 1558.21L826.298 1402.59C831.146 1396.71 837.502 1395.14 843.092 1398.45L843.093 1398.45L1025.37 1506.52C1029.32 1508.87 1032.56 1513.46 1034.45 1519.42L1130.15 1820.68C1132.34 1827.59 1132.55 1835.73 1130.73 1843.08L1067.45 2098.14Z" stroke="url(#paint36_linear_6_19152)" stroke-width="4"/>
<path opacity="0.550725" d="M1082.78 2100.65C1080.65 2110.6 1075.18 2117.95 1068.65 2119.63L900.254 2162.9C895.348 2164.16 890.391 2162.07 886.624 2157.16L724.995 1946.12C721.73 1941.86 719.609 1935.79 719.041 1929.1L693.313 1625.81C692.516 1616.42 694.856 1606.92 699.501 1600.68L821.823 1436.36C826.468 1430.12 832.758 1428.03 838.456 1430.84L1022.5 1521.46C1026.56 1523.47 1029.97 1527.79 1032.08 1533.61L1136.29 1821.78C1138.72 1828.5 1139.19 1836.61 1137.59 1844.08L1082.78 2100.65Z" stroke="url(#paint37_linear_6_19152)" stroke-width="4"/>
<path opacity="0.565217" d="M1097.36 2102.74C1095.55 2112.77 1090.35 2120.49 1083.9 2122.71L918.331 2179.88C913.452 2181.56 908.403 2179.9 904.455 2175.31L737.8 1981.59C734.365 1977.6 732.028 1971.7 731.244 1965.04L696.347 1668.74C695.256 1659.48 697.285 1649.86 701.716 1643.28L817.889 1470.87C822.32 1464.29 828.527 1461.69 834.315 1463.98L1019.47 1537.28C1023.63 1538.93 1027.22 1542.98 1029.53 1548.63L1141.7 1823.22C1144.35 1829.73 1145.09 1837.78 1143.73 1845.37L1097.36 2102.74Z" stroke="url(#paint38_linear_6_19152)" stroke-width="4"/>
<path opacity="0.57971" d="M1111.17 2104.48C1109.69 2114.55 1104.76 2122.62 1098.42 2125.38L936.154 2196C931.317 2198.11 926.192 2196.89 922.073 2192.64L751.063 2016.37C747.468 2012.67 744.92 2006.95 743.919 2000.34L700.191 1711.66C698.811 1702.55 700.526 1692.83 704.733 1685.94L814.516 1506.05C818.723 1499.15 824.832 1496.04 830.692 1497.82L1016.33 1553.96C1020.58 1555.25 1024.33 1559 1026.84 1564.47L1146.4 1825.05C1149.28 1831.33 1150.28 1839.31 1149.14 1846.99L1111.17 2104.48Z" stroke="url(#paint39_linear_6_19152)" stroke-width="4"/>
<path opacity="0.594203" d="M1124.22 2105.92C1123.06 2116.02 1118.42 2124.41 1112.2 2127.69L953.701 2211.31C948.921 2213.83 943.735 2213.05 939.458 2209.17L764.763 2050.42C761.019 2047.02 758.265 2041.5 757.048 2034.97L704.844 1754.49C703.18 1745.55 704.58 1735.77 708.554 1728.57L811.727 1541.82C815.7 1534.63 821.694 1531.03 827.608 1532.28L1013.1 1571.5C1017.42 1572.42 1021.32 1575.85 1024.03 1581.13L1150.41 1827.33C1153.5 1833.36 1154.76 1841.25 1153.87 1849L1124.22 2105.92Z" stroke="url(#paint40_linear_6_19152)" stroke-width="4"/>
<path opacity="0.608696" d="M1136.51 2107.15C1135.66 2117.24 1131.32 2125.94 1125.23 2129.73L970.943 2225.83C966.234 2228.77 961.004 2228.43 956.581 2224.92L778.87 2083.71C774.986 2080.63 772.033 2075.33 770.602 2068.88L710.294 1797.16C708.352 1788.41 709.435 1778.59 713.167 1771.11L809.535 1578.15C813.266 1570.68 819.129 1566.59 825.078 1567.32L1009.81 1589.9C1014.19 1590.44 1018.24 1593.55 1021.14 1598.61L1153.75 1830.12C1157.05 1835.88 1158.57 1843.65 1157.91 1851.45L1136.51 2107.15Z" stroke="url(#paint41_linear_6_19152)" stroke-width="4"/>
<path opacity="0.623188" d="M1148.02 2108.23C1147.49 2118.31 1143.46 2127.28 1137.52 2131.56L987.857 2239.61C983.235 2242.95 977.976 2243.06 973.422 2239.94L793.355 2116.22C789.343 2113.46 786.198 2108.4 784.554 2102.06L716.53 1839.6C714.317 1831.06 715.084 1821.21 718.565 1813.48L807.956 1614.95C811.437 1607.22 817.152 1602.67 823.118 1602.87L1006.5 1609.15C1010.93 1609.3 1015.1 1612.07 1018.18 1616.89L1156.45 1833.46C1159.94 1838.94 1161.71 1846.57 1161.3 1854.41L1148.02 2108.23Z" stroke="url(#paint42_linear_6_19152)" stroke-width="4"/>
<path opacity="0.637681" d="M1158.77 2109.26C1158.56 2119.29 1154.83 2128.51 1149.05 2133.28L1004.42 2252.69C999.902 2256.42 994.631 2257 989.957 2254.26L808.188 2147.92C804.059 2145.5 800.729 2140.7 798.877 2134.48L723.537 1881.74C721.06 1873.43 721.511 1863.59 724.733 1855.62L806.999 1652.19C810.222 1644.22 815.775 1639.21 821.74 1638.89L1003.18 1629.25C1007.64 1629.01 1011.94 1631.43 1015.19 1636L1158.52 1837.42C1162.2 1842.6 1164.22 1850.07 1164.06 1857.93L1158.77 2109.26Z" stroke="url(#paint43_linear_6_19152)" stroke-width="4"/>
<path opacity="0.652174" d="M1168.74 2110.28C1168.84 2120.25 1165.43 2129.7 1159.84 2134.92L1020.61 2265.11C1016.21 2269.23 1010.94 2270.25 1006.16 2267.92L823.334 2178.78C819.1 2176.72 815.594 2172.19 813.536 2166.11L731.292 1923.52C728.56 1915.46 728.696 1905.65 731.653 1897.46L806.669 1689.78C809.626 1681.59 815.001 1676.14 820.947 1675.31L999.892 1650.18C1004.37 1649.55 1008.77 1651.6 1012.2 1655.91L1159.99 1842.04C1163.85 1846.91 1166.11 1854.2 1166.19 1862.05L1168.74 2110.28Z" stroke="url(#paint44_linear_6_19152)" stroke-width="4"/>
<path opacity="0.666667" d="M1177.96 2111.38C1178.38 2121.25 1175.28 2130.9 1169.9 2136.57L1036.41 2276.9C1032.14 2281.39 1026.89 2282.87 1022.02 2280.95L838.77 2208.79C834.444 2207.09 830.77 2202.84 828.51 2196.93L739.786 1964.86C736.806 1957.07 736.629 1947.31 739.314 1938.92L806.98 1727.66C809.665 1719.27 814.848 1713.4 820.755 1712.06L996.663 1671.92C1001.14 1670.9 1005.64 1672.57 1009.22 1676.61L1160.89 1847.37C1164.92 1851.9 1167.42 1859 1167.75 1866.83L1177.96 2111.38Z" stroke="url(#paint45_linear_6_19152)" stroke-width="4"/>
<path opacity="0.681159" d="M1186.44 2112.62C1187.16 2122.38 1184.39 2132.21 1179.22 2138.3L1051.81 2288.11C1047.68 2292.97 1042.47 2294.9 1037.53 2293.4L854.463 2237.94C850.057 2236.61 846.225 2232.66 843.767 2226.93L748.994 2005.71C745.777 1998.2 745.288 1988.52 747.695 1979.96L807.935 1765.78C810.342 1757.22 815.318 1750.95 821.169 1749.09L993.52 1694.47C997.99 1693.05 1002.57 1694.35 1006.3 1698.09L1161.26 1853.45C1165.45 1857.64 1168.18 1864.52 1168.75 1872.31L1186.44 2112.62Z" stroke="url(#paint46_linear_6_19152)" stroke-width="4"/>
<path opacity="0.695652" d="M1194.18 2114.07C1195.2 2123.7 1192.76 2133.67 1187.81 2140.16L1066.78 2298.79C1062.81 2304 1057.65 2306.38 1052.65 2305.3L870.376 2266.22C865.903 2265.26 861.922 2261.62 859.272 2256.08L758.889 2046.02C755.443 2038.81 754.646 2029.22 756.768 2020.51L809.531 1804.07C811.653 1795.36 816.41 1788.7 822.187 1786.35L990.485 1717.81C994.928 1716 999.574 1716.91 1003.44 1720.34L1161.12 1860.32C1165.45 1864.16 1168.41 1870.81 1169.23 1878.54L1194.18 2114.07Z" stroke="url(#paint47_linear_6_19152)" stroke-width="4"/>
<path opacity="0.710145" d="M1201.19 2115.79C1202.51 2125.27 1200.42 2135.36 1195.71 2142.23L1081.32 2308.98C1077.52 2314.53 1072.43 2317.34 1067.38 2316.7L886.483 2293.6C881.956 2293.02 877.837 2289.71 875 2284.37L769.449 2085.71C765.785 2078.81 764.684 2069.35 766.518 2060.51L811.774 1842.47C813.607 1833.64 818.131 1826.61 823.816 1823.77L987.589 1741.91C991.991 1739.71 996.691 1740.23 1000.69 1743.35L1160.5 1868.01C1164.96 1871.49 1168.14 1877.89 1169.2 1885.55L1201.19 2115.79Z" stroke="url(#paint48_linear_6_19152)" stroke-width="4"/>
<path opacity="0.724638" d="M1207.51 2117.85C1209.12 2127.16 1207.36 2137.35 1202.91 2144.57L1095.41 2318.74C1091.79 2324.6 1086.78 2327.85 1081.7 2327.64L902.749 2320.09C898.182 2319.9 893.934 2316.93 890.916 2311.81L780.645 2124.75C776.773 2118.18 775.372 2108.86 776.913 2099.92L814.657 1880.93C816.197 1871.99 820.474 1864.63 826.05 1861.31L984.854 1766.77C989.201 1764.18 993.942 1764.3 998.061 1767.09L1159.44 1876.58C1164.03 1879.69 1167.41 1885.82 1168.72 1893.38L1207.51 2117.85Z" stroke="url(#paint49_linear_6_19152)" stroke-width="4"/>
</g>
<defs>
<linearGradient id="paint0_linear_6_19152" x1="281.106" y1="1238.1" x2="1134.57" y2="1062.34" gradientUnits="userSpaceOnUse">
<stop stop-color="#747578"/>
<stop offset="1" stop-color="white"/>
</linearGradient>
<linearGradient id="paint1_linear_6_19152" x1="298.013" y1="1287.74" x2="1148.07" y2="1079.66" gradientUnits="userSpaceOnUse">
<stop stop-color="#747578"/>
<stop offset="1" stop-color="white"/>
</linearGradient>
<linearGradient id="paint2_linear_6_19152" x1="315.808" y1="1336.16" x2="1162.21" y2="1094.53" gradientUnits="userSpaceOnUse">
<stop stop-color="#747578"/>
<stop offset="1" stop-color="white"/>
</linearGradient>
<linearGradient id="paint3_linear_6_19152" x1="334.444" y1="1383.28" x2="1176.76" y2="1106.67" gradientUnits="userSpaceOnUse">
<stop stop-color="#747578"/>
<stop offset="1" stop-color="white"/>
</linearGradient>
<linearGradient id="paint4_linear_6_19152" x1="353.873" y1="1429.07" x2="1191.4" y2="1115.88" gradientUnits="userSpaceOnUse">
<stop stop-color="#747578"/>
<stop offset="1" stop-color="white"/>
</linearGradient>
<linearGradient id="paint5_linear_6_19152" x1="374.041" y1="1473.45" x2="1205.79" y2="1121.87" gradientUnits="userSpaceOnUse">
<stop stop-color="#747578"/>
<stop offset="1" stop-color="white"/>
</linearGradient>
<linearGradient id="paint6_linear_6_19152" x1="394.894" y1="1516.4" x2="1219.51" y2="1124.46" gradientUnits="userSpaceOnUse">
<stop stop-color="#747578"/>
<stop offset="1" stop-color="white"/>
</linearGradient>
<linearGradient id="paint7_linear_6_19152" x1="416.38" y1="1557.86" x2="1232.09" y2="1123.48" gradientUnits="userSpaceOnUse">
<stop stop-color="#747578"/>
<stop offset="1" stop-color="white"/>
</linearGradient>
<linearGradient id="paint8_linear_6_19152" x1="438.439" y1="1597.81" x2="1242.98" y2="1118.8" gradientUnits="userSpaceOnUse">
<stop stop-color="#747578"/>
<stop offset="1" stop-color="white"/>
</linearGradient>
<linearGradient id="paint9_linear_6_19152" x1="461.013" y1="1636.22" x2="1251.54" y2="1110.39" gradientUnits="userSpaceOnUse">
<stop stop-color="#747578"/>
<stop offset="1" stop-color="white"/>
</linearGradient>
<linearGradient id="paint10_linear_6_19152" x1="484.049" y1="1673.04" x2="1257.09" y2="1098.29" gradientUnits="userSpaceOnUse">
<stop stop-color="#747578"/>
<stop offset="1" stop-color="white"/>
</linearGradient>
<linearGradient id="paint11_linear_6_19152" x1="507.488" y1="1708.28" x2="1258.85" y2="1082.69" gradientUnits="userSpaceOnUse">
<stop stop-color="#747578"/>
<stop offset="1" stop-color="white"/>
</linearGradient>
<linearGradient id="paint12_linear_6_19152" x1="531.274" y1="1741.9" x2="1256" y2="1063.93" gradientUnits="userSpaceOnUse">
<stop stop-color="#747578"/>
<stop offset="1" stop-color="white"/>
</linearGradient>
<linearGradient id="paint13_linear_6_19152" x1="555.339" y1="1773.92" x2="1247.69" y2="1042.58" gradientUnits="userSpaceOnUse">
<stop stop-color="#747578"/>
<stop offset="1" stop-color="white"/>
</linearGradient>
<linearGradient id="paint14_linear_6_19152" x1="579.634" y1="1804.31" x2="1233.12" y2="1019.43" gradientUnits="userSpaceOnUse">
<stop stop-color="#747578"/>
<stop offset="1" stop-color="white"/>
</linearGradient>
<linearGradient id="paint15_linear_6_19152" x1="604.095" y1="1833.09" x2="1211.56" y2="995.547" gradientUnits="userSpaceOnUse">
<stop stop-color="#747578"/>
<stop offset="1" stop-color="white"/>
</linearGradient>
<linearGradient id="paint16_linear_6_19152" x1="628.666" y1="1860.26" x2="1182.48" y2="972.243" gradientUnits="userSpaceOnUse">
<stop stop-color="#747578"/>
<stop offset="1" stop-color="white"/>
</linearGradient>
<linearGradient id="paint17_linear_6_19152" x1="653.284" y1="1885.84" x2="1145.63" y2="951.121" gradientUnits="userSpaceOnUse">
<stop stop-color="#747578"/>
<stop offset="1" stop-color="white"/>
</linearGradient>
<linearGradient id="paint18_linear_6_19152" x1="677.903" y1="1909.84" x2="1101.16" y2="933.913" gradientUnits="userSpaceOnUse">
<stop stop-color="#747578"/>
<stop offset="1" stop-color="white"/>
</linearGradient>
<linearGradient id="paint19_linear_6_19152" x1="702.461" y1="1932.28" x2="1049.7" y2="922.431" gradientUnits="userSpaceOnUse">
<stop stop-color="#747578"/>
<stop offset="1" stop-color="white"/>
</linearGradient>
<linearGradient id="paint20_linear_6_19152" x1="726.904" y1="1953.18" x2="992.396" y2="918.382" gradientUnits="userSpaceOnUse">
<stop stop-color="#747578"/>
<stop offset="1" stop-color="white"/>
</linearGradient>
<linearGradient id="paint21_linear_6_19152" x1="751.18" y1="1972.58" x2="930.895" y2="923.189" gradientUnits="userSpaceOnUse">
<stop stop-color="#747578"/>
<stop offset="1" stop-color="white"/>
</linearGradient>
<linearGradient id="paint22_linear_6_19152" x1="775.235" y1="1990.52" x2="867.254" y2="937.805" gradientUnits="userSpaceOnUse">
<stop stop-color="#747578"/>
<stop offset="1" stop-color="white"/>
</linearGradient>
<linearGradient id="paint23_linear_6_19152" x1="799.02" y1="2007.04" x2="803.765" y2="962.591" gradientUnits="userSpaceOnUse">
<stop stop-color="#747578"/>
<stop offset="1" stop-color="white"/>
</linearGradient>
<linearGradient id="paint24_linear_6_19152" x1="822.489" y1="2022.17" x2="742.734" y2="997.244" gradientUnits="userSpaceOnUse">
<stop stop-color="#747578"/>
<stop offset="1" stop-color="white"/>
</linearGradient>
<linearGradient id="paint25_linear_6_19152" x1="845.588" y1="2035.97" x2="686.249" y2="1040.85" gradientUnits="userSpaceOnUse">
<stop stop-color="#747578"/>
<stop offset="1" stop-color="white"/>
</linearGradient>
<linearGradient id="paint26_linear_6_19152" x1="868.278" y1="2048.5" x2="636.021" y2="1091.99" gradientUnits="userSpaceOnUse">
<stop stop-color="#747578"/>
<stop offset="1" stop-color="white"/>
</linearGradient>
<linearGradient id="paint27_linear_6_19152" x1="890.52" y1="2059.78" x2="593.238" y2="1148.93" gradientUnits="userSpaceOnUse">
<stop stop-color="#747578"/>
<stop offset="1" stop-color="white"/>
</linearGradient>
<linearGradient id="paint28_linear_6_19152" x1="912.267" y1="2069.9" x2="558.536" y2="1209.82" gradientUnits="userSpaceOnUse">
<stop stop-color="#747578"/>
<stop offset="1" stop-color="white"/>
</linearGradient>
<linearGradient id="paint29_linear_6_19152" x1="933.481" y1="2078.92" x2="532.043" y2="1272.85" gradientUnits="userSpaceOnUse">
<stop stop-color="#747578"/>
<stop offset="1" stop-color="white"/>
</linearGradient>
<linearGradient id="paint30_linear_6_19152" x1="954.135" y1="2086.88" x2="513.472" y2="1336.4" gradientUnits="userSpaceOnUse">
<stop stop-color="#747578"/>
<stop offset="1" stop-color="white"/>
</linearGradient>
<linearGradient id="paint31_linear_6_19152" x1="974.189" y1="2093.86" x2="502.211" y2="1399.11" gradientUnits="userSpaceOnUse">
<stop stop-color="#747578"/>
<stop offset="1" stop-color="white"/>
</linearGradient>
<linearGradient id="paint32_linear_6_19152" x1="993.612" y1="2099.92" x2="497.458" y2="1459.92" gradientUnits="userSpaceOnUse">
<stop stop-color="#747578"/>
<stop offset="1" stop-color="white"/>
</linearGradient>
<linearGradient id="paint33_linear_6_19152" x1="1012.38" y1="2105.14" x2="498.32" y2="1518.06" gradientUnits="userSpaceOnUse">
<stop stop-color="#747578"/>
<stop offset="1" stop-color="white"/>
</linearGradient>
<linearGradient id="paint34_linear_6_19152" x1="1030.47" y1="2109.59" x2="503.876" y2="1573.03" gradientUnits="userSpaceOnUse">
<stop stop-color="#747578"/>
<stop offset="1" stop-color="white"/>
</linearGradient>
<linearGradient id="paint35_linear_6_19152" x1="1047.85" y1="2113.34" x2="513.245" y2="1624.54" gradientUnits="userSpaceOnUse">
<stop stop-color="#747578"/>
<stop offset="1" stop-color="white"/>
</linearGradient>
<linearGradient id="paint36_linear_6_19152" x1="1064.51" y1="2116.46" x2="525.615" y2="1672.5" gradientUnits="userSpaceOnUse">
<stop stop-color="#747578"/>
<stop offset="1" stop-color="white"/>
</linearGradient>
<linearGradient id="paint37_linear_6_19152" x1="1080.44" y1="2119.01" x2="540.269" y2="1716.89" gradientUnits="userSpaceOnUse">
<stop stop-color="#747578"/>
<stop offset="1" stop-color="white"/>
</linearGradient>
<linearGradient id="paint38_linear_6_19152" x1="1095.61" y1="2121.1" x2="556.574" y2="1757.89" gradientUnits="userSpaceOnUse">
<stop stop-color="#747578"/>
<stop offset="1" stop-color="white"/>
</linearGradient>
<linearGradient id="paint39_linear_6_19152" x1="1110.02" y1="2122.78" x2="573.995" y2="1795.67" gradientUnits="userSpaceOnUse">
<stop stop-color="#747578"/>
<stop offset="1" stop-color="white"/>
</linearGradient>
<linearGradient id="paint40_linear_6_19152" x1="1123.66" y1="2124.14" x2="592.091" y2="1830.46" gradientUnits="userSpaceOnUse">
<stop stop-color="#747578"/>
<stop offset="1" stop-color="white"/>
</linearGradient>
<linearGradient id="paint41_linear_6_19152" x1="1136.52" y1="2125.23" x2="610.489" y2="1862.53" gradientUnits="userSpaceOnUse">
<stop stop-color="#747578"/>
<stop offset="1" stop-color="white"/>
</linearGradient>
<linearGradient id="paint42_linear_6_19152" x1="1148.61" y1="2126.14" x2="628.891" y2="1892.13" gradientUnits="userSpaceOnUse">
<stop stop-color="#747578"/>
<stop offset="1" stop-color="white"/>
</linearGradient>
<linearGradient id="paint43_linear_6_19152" x1="1159.92" y1="2126.96" x2="647.055" y2="1919.57" gradientUnits="userSpaceOnUse">
<stop stop-color="#747578"/>
<stop offset="1" stop-color="white"/>
</linearGradient>
<linearGradient id="paint44_linear_6_19152" x1="1170.45" y1="2127.73" x2="664.785" y2="1945.08" gradientUnits="userSpaceOnUse">
<stop stop-color="#747578"/>
<stop offset="1" stop-color="white"/>
</linearGradient>
<linearGradient id="paint45_linear_6_19152" x1="1180.21" y1="2128.53" x2="681.944" y2="1968.94" gradientUnits="userSpaceOnUse">
<stop stop-color="#747578"/>
<stop offset="1" stop-color="white"/>
</linearGradient>
<linearGradient id="paint46_linear_6_19152" x1="1189.22" y1="2129.44" x2="698.416" y2="1991.4" gradientUnits="userSpaceOnUse">
<stop stop-color="#747578"/>
<stop offset="1" stop-color="white"/>
</linearGradient>
<linearGradient id="paint47_linear_6_19152" x1="1197.48" y1="2130.53" x2="714.116" y2="2012.7" gradientUnits="userSpaceOnUse">
<stop stop-color="#747578"/>
<stop offset="1" stop-color="white"/>
</linearGradient>
<linearGradient id="paint48_linear_6_19152" x1="1205" y1="2131.85" x2="728.994" y2="2033.05" gradientUnits="userSpaceOnUse">
<stop stop-color="#747578"/>
<stop offset="1" stop-color="white"/>
</linearGradient>
<linearGradient id="paint49_linear_6_19152" x1="1211.81" y1="2133.48" x2="743.01" y2="2052.68" gradientUnits="userSpaceOnUse">
<stop stop-color="#747578"/>
<stop offset="1" stop-color="white"/>
</linearGradient>
</defs>
</svg>
