<svg width="22" height="22" viewBox="0 0 22 22" fill="none" xmlns="http://www.w3.org/2000/svg">
<path fill-rule="evenodd" clip-rule="evenodd" d="M14.5673 16.5059C12.7106 17.8737 10.4056 18.4894 8.11418 18.2297C5.82271 17.97 3.71399 16.854 2.21049 15.1054C0.706984 13.3567 -0.0802581 11.1045 0.00647492 8.80003C0.093208 6.49552 1.04751 4.30889 2.6782 2.6782C4.30889 1.04751 6.49552 0.093208 8.80003 0.00647492C11.1045 -0.0802581 13.3567 0.706984 15.1054 2.21049C16.854 3.71399 17.97 5.82271 18.2297 8.11418C18.4894 10.4057 17.8737 12.7106 16.5059 14.5673L21.5442 19.6038C21.6789 19.7294 21.787 19.8808 21.862 20.0491C21.9369 20.2173 21.9772 20.3989 21.9805 20.5831C21.9837 20.7673 21.9499 20.9502 21.8809 21.121C21.8119 21.2918 21.7092 21.4469 21.579 21.5771C21.4487 21.7074 21.2936 21.8101 21.1228 21.8791C20.952 21.948 20.7691 21.9819 20.5849 21.9787C20.4008 21.9754 20.2191 21.9351 20.0509 21.8601C19.8826 21.7852 19.7312 21.6771 19.6056 21.5423L14.5673 16.5059ZM15.5457 9.14317C15.5457 10.8408 14.8714 12.4688 13.671 13.6692C12.4706 14.8696 10.8426 15.5439 9.145 15.5439C7.44741 15.5439 5.81936 14.8696 4.61899 13.6692C3.41861 12.4688 2.74425 10.8408 2.74425 9.14317C2.74425 7.44558 3.41861 5.81753 4.61899 4.61716C5.81936 3.41678 7.44741 2.74242 9.145 2.74242C10.8426 2.74242 12.4706 3.41678 13.671 4.61716C14.8714 5.81753 15.5457 7.44558 15.5457 9.14317Z" fill="#DEDDDB"/>
</svg>
